<svg width="24px" height="24px" viewBox="0 0 24 24" style="vertical-align: middle;" version="1.1" xmlns="http://www.w3.org/2000/svg" xmlns:xlink="http://www.w3.org/1999/xlink">
    <!-- Generator: Sketch 3.6.1 (26313) - http://www.bohemiancoding.com/sketch -->
    <title>Artboard 12 Copy</title>
    <desc>Created with Sketch.</desc>
    <defs></defs>
    <g id="GUI" stroke="none" stroke-width="1" fill="none" fill-rule="evenodd">
        <g id="Artboard-12-Copy" fill="#FFFFFF">
            <path d="M6.5306388,17.150582 C3.77278616,14.1845168 3.82205553,9.5346431 6.68706903,6.64987375 C7.85967989,5.46862105 9.32667519,4.76282565 10.851562,4.53125577 L10.7653406,2 C8.62705023,2.25990023 6.55650522,3.21451007 4.9158354,4.86629303 C1.07652023,8.73400259 1.03094607,14.9765351 4.76556384,18.9292357 L2.643286,21.0675617 L9.36239548,21.4346246 L9.34268774,14.3200099 L6.5306388,17.150582 L6.5306388,17.150582 Z M14.6366809,2.56660713 L14.6563886,9.6812219 L17.4684376,6.84818624 C20.2275219,9.8142514 20.1782526,14.4641251 17.3132391,17.3488945 C16.1406282,18.5301472 14.6736329,19.2347108 13.1487461,19.4675125 L13.2337357,22 C15.3732579,21.7400998 17.4438029,20.7854899 19.083241,19.133707 C22.9237879,15.2659974 22.969362,9.02346493 19.2335125,5.0707643 L21.3557904,2.93367001 L14.6366809,2.56660713 L14.6366809,2.56660713 Z" id="Shape"></path>
        </g>
    </g>
</svg>
