<?xml version="1.0" encoding="UTF-8" standalone="no"?>
<svg x="0px" y="0px" xml:space="preserve" width="24px" height="24px" viewBox="0 0 24 24" version="1.1" xmlns="http://www.w3.org/2000/svg" xmlns:xlink="http://www.w3.org/1999/xlink">
    <!-- Generator: Sketch 3.6.1 (26313) - http://www.bohemiancoding.com/sketch -->
    <title>Artboard 12</title>
    <desc>Created with Sketch.</desc>
    <defs></defs>
    <g id="GUI" stroke="none" stroke-width="1" fill="none" fill-rule="evenodd">
        <g id="Artboard-12" fill="#FFFFFF">
            <g id="Imported-Layers-Copy-9" transform="translate(12.526912, 11.819805) rotate(-315.000000) translate(-12.526912, -11.819805) translate(1.026912, -0.680195)">
                <path d="M11.9931959,24.9023668 L12.1322663,23.4689583 L12.3316133,24.6584266 L13.8753712,24.6580487 L14.1476546,22.9105979 L15.2832709,22.9525458 L16.8684098,23.6679273 L17.365549,21.7689351 L17.0919429,19.9236058 L15.5209756,17.7457168 L15.2471806,17.2211792 L14.3418998,13.392584 L13.9452844,10.7387187 L13.9458512,10.7377739 L13.7916644,10.7387187 L13.6389892,11.2715702 L13.581547,13.3920171 L13.5819249,13.3946625 L13.5807912,13.3952294 L13.5811691,15.6830899 L13.5834366,15.6825231 L12.9417472,15.7068982 C13.0870532,14.6306136 12.4079509,9.40526708 12.1324553,7.27745095 C11.8573376,5.14850109 11.4977573,5.14132082 11.4977573,5.14132082 L11.1648195,5.1401871 L10.830937,5.14094291 C10.830937,5.14094291 10.4711677,5.14850109 10.1969948,7.27726199 C9.92093235,9.40564499 9.24145213,14.6306136 9.38713601,15.7072761 L8.74809204,15.6825231 L8.69064989,11.2711923 L8.53721887,10.7389076 L8.38359889,10.7375849 L8.38378785,10.7385297 L8.23073474,11.2711923 L7.08302537,17.2209902 L6.80809664,17.7460947 L4.96465697,19.7682853 L4.96427906,21.769313 L5.46141823,23.6681163 L7.0459903,22.9523568 L8.18160658,22.9104089 L8.453701,24.6580487 L9.99764786,24.6582376 L10.1969948,23.4691472 L10.3360653,24.9019889 M11.6491098,15.6275373 L11.4461727,21.1436848 L10.8825216,21.1433068 L10.6799624,15.6277263 M11.4465506,7.19279935 L11.6491098,14.9673304 L10.6801514,14.9673304 L10.8825216,7.19298831 L11.4465506,7.19279935 Z M11.1808807,0.637402407 C5.20311749,0.637213453 0.337351291,5.5027907 0.338296063,11.480176 C0.338862927,14.4607436 1.54741563,17.1633591 3.49893725,19.1252733 L4.24417363,18.0960383 C2.60178149,16.3737185 1.59030829,14.0446658 1.59049724,11.4822545 C1.59030829,6.1919076 5.89299021,1.88922568 11.1808807,1.89054836 C16.4700938,1.89017045 20.7752321,6.19304133 20.7740984,11.4835771 C20.7735315,14.0425873 19.7643258,16.3688056 18.1251459,18.0901807 L18.871327,19.1205494 C20.8200143,17.1590132 22.0264885,14.459043 22.0259217,11.4828213 C22.0270554,5.50316861 17.1618561,0.637969271 11.1808807,0.637402407 Z" id="Combined-Shape"></path>
            </g>
        </g>
    </g>
</svg>
