<?xml version="1.0" encoding="UTF-8" standalone="no"?>
<svg width="210px" height="136px" viewBox="0 0 210 136" version="1.1" xmlns="http://www.w3.org/2000/svg" xmlns:xlink="http://www.w3.org/1999/xlink" xmlns:sketch="http://www.bohemiancoding.com/sketch/ns">
    <!-- Generator: Sketch 3.2.2 (9983) - http://www.bohemiancoding.com/sketch -->
    <title>logo</title>
    <desc>Created with Sketch.</desc>
    <defs></defs>
    <g id="MAQUETTES" stroke="none" stroke-width="1" fill="none" fill-rule="evenodd" sketch:type="MSPage">
        <g id="Login-off" sketch:type="MSArtboardGroup" transform="translate(-616.000000, -205.000000)" fill="#FFFFFF">
            <g id="*login-+-logo" sketch:type="MSLayerGroup" transform="translate(560.000000, 206.000000)">
                <g id="logo" transform="translate(60.000000, 0.000000)" sketch:type="MSShapeGroup">
                    <path d="M38.595159,96.8060667 L47.578785,96.8060667 L47.578785,124.091 L38.595159,124.091 L38.595159,96.8060667 Z" id="Fill-1"></path>
                    <path d="M75.8303275,121.478033 C74.660655,122.210467 73.3279544,122.82465 71.8172757,123.33205 C70.3122924,123.836583 68.7752729,124.091717 67.2055055,124.091717 C64.6312292,124.091717 62.3894162,123.72765 60.4814903,122.99665 C58.5700047,122.26995 56.9717608,121.288833 55.6853346,120.0533 C54.3974846,118.822067 53.4349786,117.383 52.7921215,115.743267 C52.1485524,114.10425 51.8274798,112.372783 51.8274798,110.5503 C51.8274798,108.732117 52.1485524,106.979867 52.7921215,105.3 C53.4349786,103.622283 54.3974846,102.151683 55.6853346,100.89895 C56.9717608,99.6447833 58.5700047,98.6428833 60.4814903,97.89325 C62.3894162,97.1436167 64.6312292,96.7702333 67.2055055,96.7702333 C68.7752729,96.7702333 70.3122924,97.02465 71.8172757,97.5299 C73.3279544,98.03515 75.0757,98.9159333 76.2389654,99.6447833 L71.3758899,104.542483 C70.2218794,104.209233 71.3758899,104.542483 70.4326056,104.268 C69.4878975,103.995667 68.4705743,103.875267 67.3877551,103.875267 C65.5745135,103.875267 64.0083056,104.3884 62.6820123,105.421833 C61.3578548,106.453117 60.6915045,108.1251 60.6915045,110.4299 C60.6915045,112.535467 61.364262,114.155133 62.7140484,115.28675 C64.0581395,116.4198 65.7354058,116.988117 67.747271,116.988117 C69.8360228,116.988117 71.7681538,116.483583 73.5386806,115.4695 L75.8303275,121.478033" id="Fill-2"></path>
                    <path d="M92.3929758,103.907517 L92.3929758,113.76885 C92.3929758,114.9019 92.5908875,115.69095 92.9973897,116.13815 C93.3946369,116.583917 93.9385382,116.806083 94.6212625,116.806083 C94.9401993,116.806083 95.2947318,116.7638 95.6798766,116.682817 C96.0593261,116.603267 96.4693878,116.500783 96.9129093,116.37895 L98.9653536,123.12135 C97.7985287,123.403 96.6616042,123.6352 95.5602753,123.819383 C94.4489796,123.999983 93.336972,124.091717 92.2114381,124.091717 C90.9221642,124.091717 89.7510679,123.929033 88.6839108,123.60725 C87.6167537,123.279733 86.6905553,122.725033 85.9074514,121.935267 C85.1250593,121.146217 84.5220693,120.064767 84.0956336,118.687333 C83.6777409,117.312767 83.4670147,115.591333 83.4670147,113.5259 L83.4670147,103.907517 L77.7325581,103.907517 L77.7325581,102.632567 L83.4670147,96.8060667 L83.4670147,93.7831667 L92.3929758,84.7574667 L92.3929758,96.8060667 L99.3298529,96.8060667 L99.3298529,103.907517 L92.3929758,103.907517" id="Fill-3"></path>
                    <path d="M130.804936,110.4299 C130.804936,112.293233 130.495254,114.043333 129.87233,115.681633 C129.247983,117.321367 128.336023,118.766167 127.129331,120.022483 C125.924775,121.2788 124.446132,122.26995 122.694827,122.99665 C120.944945,123.72765 118.96654,124.091717 116.756051,124.091717 C114.54485,124.091717 112.565733,123.72765 110.816564,122.99665 C109.065259,122.26995 107.588752,121.2788 106.38206,120.022483 C105.175368,118.766167 104.252017,117.321367 103.60916,115.681633 C102.962743,114.043333 102.644518,112.293233 102.644518,110.4299 C102.644518,108.57015 102.962743,106.808583 103.60916,105.148783 C104.252017,103.490417 105.175368,102.04275 106.38206,100.805783 C107.588752,99.5738333 109.065259,98.5927167 110.816564,97.8645833 C112.565733,97.1350167 114.54485,96.7702333 116.756051,96.7702333 C118.96654,96.7702333 120.944945,97.1350167 122.694827,97.8645833 C124.446132,98.5927167 125.924775,99.5738333 127.129331,100.805783 C128.336023,102.04275 129.247983,103.490417 129.87233,105.148783 C130.495254,106.808583 130.804936,108.57015 130.804936,110.4299 L130.804936,110.4299 Z M121.943759,110.4299 C121.943759,108.20465 121.488135,106.48465 120.584718,105.2699 C119.679165,104.054433 118.404841,103.44885 116.756051,103.44885 C115.067394,103.44885 113.772425,104.054433 112.864737,105.2699 C111.960607,106.48465 111.510679,108.20465 111.510679,110.4299 C111.510679,112.6573 111.960607,114.376583 112.864737,115.591333 C113.772425,116.806083 115.067394,117.411667 116.756051,117.411667 C118.404841,117.411667 119.679165,116.806083 120.584718,115.591333 C121.488135,114.376583 121.943759,112.6573 121.943759,110.4299 L121.943759,110.4299 Z" id="Fill-4"></path>
                    <path d="M136.47532,96.8060667 L145.464642,96.8060667 L145.464642,124.091 L136.47532,124.091 L136.47532,96.8060667 Z" id="Fill-5"></path>
                    <path d="M170.732558,105.756517 C168.56336,105.310033 166.678215,105.148783 165.091362,105.2699 C163.504509,105.391017 162.347651,105.9579 161.629331,106.969833 L161.629331,124.091717 L152.635738,124.091717 L152.635738,96.8060667 L161.383721,96.8060667 L161.383721,101.50525 C161.985287,100.697567 162.590413,99.9973833 163.195539,99.4097167 C163.794257,98.82635 164.457048,98.3282667 165.186047,97.9240667 C165.910062,97.5205833 166.719506,97.2260333 167.627907,97.044 C168.531324,96.8619667 169.565733,96.7702333 170.732558,96.7702333 L170.732558,105.756517" id="Fill-6"></path>
                    <path d="M199.743711,109.459533 C199.743711,109.863733 199.728761,110.472183 199.711675,111.280583 C199.690318,112.088983 199.640484,112.718933 199.559326,113.163267 L182.432843,113.163267 C182.714048,114.66325 183.356906,115.743267 184.359991,116.409767 C185.364499,117.076267 186.916469,117.411667 189.005933,117.411667 C190.093735,117.411667 191.335311,117.281233 192.747034,117.01965 C194.149502,116.7552 195.559089,116.4198 196.96654,116.017033 L197.81158,122.636167 C196.125059,123.079067 194.433555,123.433817 192.747034,123.694683 C191.054817,123.956983 189.509255,124.091717 188.099668,124.091717 C185.528239,124.091717 183.327717,123.72765 181.498813,122.99665 C179.665638,122.26995 178.172757,121.288833 177.003085,120.0533 C175.837684,118.822067 174.97271,117.383 174.408875,115.743267 C173.850024,114.10425 173.566682,112.372783 173.566682,110.5503 C173.566682,108.81095 173.855719,107.111733 174.440911,105.451217 C175.02468,103.793567 175.896773,102.325833 177.064309,101.0516 C178.231134,99.7752167 179.665638,98.74465 181.3785,97.9541667 C183.084955,97.1636833 185.064072,96.7702333 187.316564,96.7702333 C189.368296,96.7702333 191.177266,97.1027667 192.747034,97.7721333 C194.313242,98.4400667 195.608211,99.35095 196.636213,100.504067 C197.662791,101.65575 198.433792,103.003083 198.957048,104.54105 C199.477456,106.08045 199.743711,107.719467 199.743711,109.459533 L199.743711,109.459533 Z M191.961082,108.244783 C191.80019,106.665967 191.296868,105.492067 190.456099,104.722367 C189.61177,103.953383 188.564547,103.570683 187.316564,103.570683 C185.990271,103.570683 184.902468,103.966283 184.060987,104.7539 C183.217371,105.542233 182.693403,106.708967 182.491932,108.244783 L191.961082,108.244783 L191.961082,108.244783 Z" id="Fill-7"></path>
                    <path d="M19.4795918,124.091717 L0.440199336,96.7702333 L11.0476981,96.7702333 L22.9843379,114.152267 L23.056953,114.152267 L23.056953,96.8060667 L32.0341718,96.8060667 L32.0341718,124.091717 L19.4795918,124.091717" id="Fill-8"></path>
                    <path d="M122.022781,16.5214833 L121.848363,16.3559333 L121.683911,16.18035 C121.683911,16.18035 113.972473,16.9235333 107.590888,23.97625 L104.605126,23.9583333 C104.605126,23.9583333 98.6257712,29.0359167 97.8761272,30.95515 L103.535121,29.8665333 C103.255339,30.4040333 102.985524,30.9616 102.7271,31.5406667 L102.958472,31.80225 L102.591125,32.2 C102.591125,32.2 103.577124,33.5236833 104.152349,34.1615167 L105.954912,35.6349833 L106.41196,35.28095 L106.718083,35.5583 C107.29402,35.29815 107.870669,35.04875 108.40318,34.7685333 L107.336023,40.4767833 C109.240389,39.7207 114.294257,33.7136 114.294257,33.7136 L114.277883,30.7079 C121.284528,24.2837 122.022781,16.5214833 122.022781,16.5214833 L122.022781,16.5214833 Z M116.430707,20.5713667 C116.979592,20.5713667 117.423825,21.0185667 117.423825,21.5704 C117.423825,22.12295 116.979592,22.57015 116.430707,22.57015 C115.883246,22.57015 115.439013,22.12295 115.439013,21.5704 C115.439013,21.0185667 115.883246,20.5713667 116.430707,20.5713667 L116.430707,20.5713667 Z" id="Fill-13"></path>
                    <path d="M90.2693403,43.8544333 L90.5213574,43.9648 C90.6929283,44.0429167 90.8701946,44.1145833 91.0374941,44.2048833 C91.7159468,44.5589167 92.3381585,45.0369333 92.9005695,45.5744333 L93.2807309,46.00085 C93.3405316,46.0710833 93.4003322,46.1277 93.4608448,46.21155 L93.4900332,46.25025 L103.191267,34.5040833 C103.191267,34.5040833 98.8592786,38.5869333 92.8058851,42.37165 C91.8277171,42.9851167 90.9940674,43.4667167 90.2693403,43.8544333" id="Fill-14"></path>
                    <path d="M126.225202,11.21815 C111.783341,-3.318 88.2852397,-3.318 73.844803,11.2210167 C59.4029426,25.7586 59.4015187,49.4129 73.8426673,63.94905 C88.2852397,78.4880667 111.782629,78.4880667 126.225202,63.9504833 C140.665638,49.4114667 140.667062,25.7571667 126.225202,11.21815 L126.225202,11.21815 Z M75.0813953,31.6152 C75.0778358,31.5600167 75.076412,31.4998167 75.0735643,31.4353167 C75.0621737,31.3701 75.0557665,31.2998667 75.0465116,31.2267667 C75.035121,31.15295 75.0137636,31.0762667 74.9966777,30.99385 C74.9760323,30.9135833 74.9461319,30.8318833 74.9219269,30.74445 C74.8856194,30.6613167 74.8514476,30.5738833 74.8087328,30.48645 C74.7617466,30.4026 74.7233033,30.31015 74.6613669,30.2263 C74.5581395,30.0514333 74.4143332,29.8901833 74.2577124,29.7353833 C74.0982439,29.5827333 73.9110109,29.4551667 73.7116754,29.3433667 C73.6604177,29.3182833 73.6098719,29.2932 73.5579022,29.2688333 C73.5329853,29.2552167 73.5059326,29.2451833 73.4803037,29.2358667 L73.4019934,29.2072 L73.3243949,29.1771 C73.298766,29.1670667 73.2645942,29.1613333 73.2368296,29.1527333 L73.0638348,29.1068667 C72.8360228,29.06315 72.6039393,29.0452333 72.3739915,29.0581333 C72.1490271,29.08035 71.9261984,29.1204833 71.7197437,29.19645 C71.5154248,29.27385 71.3175131,29.3612833 71.1516374,29.4795333 C71.0626483,29.53185 70.9907451,29.60065 70.9138586,29.6579833 C70.8391077,29.7203333 70.7721879,29.7862667 70.7074039,29.8493333 C70.6490271,29.9181333 70.5885145,29.9812 70.5386806,30.0471333 C70.4902705,30.1145 70.4404366,30.1761333 70.4012814,30.2392 C70.3607024,30.3037 70.3265306,30.3639 70.2916469,30.4198 C70.2624585,30.4771333 70.2361177,30.5308833 70.2119127,30.5781833 C70.2069293,30.58965 70.2026578,30.5996833 70.1969625,30.6097167 C70.1884196,30.5925167 70.176317,30.5746 70.1813004,30.55525 C70.1962506,30.5015 70.1898434,30.4405833 70.2112008,30.37465 C70.2346939,30.31015 70.2517798,30.2427833 70.2809682,30.1689667 C70.3130043,30.0958667 70.3500237,30.02205 70.3898908,29.9432167 C70.4318937,29.8636667 70.4888467,29.78985 70.5415282,29.7067167 C70.6020408,29.6300333 70.666113,29.5483333 70.7380161,29.4702167 C70.8141908,29.3956833 70.8910774,29.3154167 70.9829141,29.2466167 C71.1559089,29.0997 71.366635,28.9764333 71.5958709,28.8753833 C71.6556716,28.85245 71.7133365,28.8302333 71.7724252,28.8073 C71.8329378,28.7858 71.8962981,28.7721833 71.9589464,28.7528333 L72.051495,28.7291833 L72.1476032,28.7134167 C72.214523,28.7033833 72.2785952,28.6897667 72.344803,28.6840333 C72.6082107,28.6575167 72.8780256,28.6783 73.144281,28.7263167 L73.3350736,28.7786333 C73.3656858,28.7872333 73.3927385,28.79225 73.4269103,28.8058667 L73.5244423,28.8417 C73.5870907,28.8689333 73.65757,28.8882833 73.7130992,28.92125 C73.7743237,28.95135 73.8327005,28.9821667 73.8917893,29.0129833 C73.9494542,29.0452333 74.0042715,29.0825 74.0598007,29.1176167 L74.1416706,29.1720833 L74.2178453,29.2337167 C74.2669673,29.276 74.3196488,29.3139833 74.3659231,29.3577 C74.4107736,29.4035667 74.4556241,29.4472833 74.4990508,29.4917167 C74.668486,29.6773333 74.8130043,29.8751333 74.913384,30.08225 C74.9710489,30.1818667 75.0066445,30.2865 75.0465116,30.3854 C75.0813953,30.4871667 75.1091599,30.5875 75.1326531,30.6828167 C75.1511628,30.7802833 75.1725202,30.8720167 75.1789274,30.9616 C75.1853346,31.0519 75.1938776,31.1350333 75.1938776,31.2145833 C75.190318,31.2941333 75.1888942,31.3686667 75.1853346,31.4360333 C75.1775036,31.5026833 75.165401,31.5643167 75.1568581,31.6202167 C75.1540104,31.6488833 75.149739,31.6746833 75.1454675,31.6997667 C75.1390603,31.7241333 75.1326531,31.7449167 75.1276697,31.7664167 C75.1162791,31.8094167 75.1063123,31.84525 75.0991932,31.8739167 C75.0813953,31.93125 75.0735643,31.96135 75.0735643,31.96135 C75.0728524,31.96135 75.0735643,31.9298167 75.076412,31.8696167 C75.0778358,31.8402333 75.0792596,31.8036833 75.0813953,31.7614 C75.0828192,31.7391833 75.0828192,31.7169667 75.084243,31.6918833 C75.0828192,31.6682333 75.0828192,31.64315 75.0813953,31.6152 L75.0813953,31.6152 Z M68.3381585,30.7666667 C68.5253916,30.7666667 68.7233033,30.64555 68.9326056,30.6656167 C69.1440437,30.6914167 69.5284765,30.6763667 69.7570005,30.7236667 C69.8887043,30.7638 69.7904604,30.7724 70.1264832,30.8211333 C70.1229236,30.8311667 70.1179402,30.8254333 70.1143806,30.83475 C70.1129568,30.8383333 70.1122449,30.8297333 70.1108211,30.8326 C70.1677741,30.8533833 70.2211675,30.8619833 70.2774086,30.8842 C70.5080683,30.98955 70.7543901,31.0870167 70.983626,31.2310667 C71.4591837,31.4890667 71.912672,31.8517 72.3341243,32.2738167 C72.4359279,32.3849 72.5370195,32.49455 72.6409587,32.6077833 C72.7384907,32.72245 72.8232084,32.8507333 72.9186047,32.974 L73.0552919,33.1603333 L73.1741813,33.3602833 C73.2539155,33.4978833 73.339345,33.6304667 73.4091125,33.7702167 C73.6967252,34.3363833 73.886094,34.9555833 74.0121025,35.5891167 L74.0640721,36.0578167 C74.0690555,36.1337833 74.0840057,36.199 74.0854295,36.28715 L74.0904129,36.5344 C74.0875653,36.6985167 74.1053631,36.87195 74.0825819,37.0274667 C74.0669198,37.1872833 74.0526815,37.3463833 74.0377314,37.50405 C74.016374,37.6602833 73.9800664,37.8129333 73.9523019,37.9691667 L73.902468,38.1970667 L73.8341243,38.4206667 C73.7850024,38.5675833 73.7479829,38.7188 73.6910299,38.85855 C73.6312292,38.9968667 73.5714286,39.1359 73.5130517,39.2742167 C73.2517798,39.8117167 72.9435216,40.3062167 72.5790223,40.7089833 C72.4088752,40.92255 72.2102515,41.0967 72.0280019,41.2715667 C71.8350736,41.4371167 71.6385857,41.5854667 71.4520645,41.7237833 C71.2505933,41.8456167 71.0704794,41.9753333 70.8782629,42.0692167 C70.6853346,42.1588 70.5080683,42.25125 70.3336497,42.32005 C70.1585192,42.3831167 69.9940674,42.4440333 69.84243,42.4934833 C69.6865211,42.5357667 69.540579,42.5637167 69.4110109,42.5945333 C69.3476507,42.6088667 69.2857143,42.6239167 69.2280494,42.6368167 C69.1689606,42.6447 69.1148552,42.649 69.0635975,42.6561667 C68.9610821,42.66835 68.8735168,42.6762333 68.8051732,42.6841167 C68.6635026,42.6970167 68.5894637,42.7041833 68.5894637,42.7041833 C68.5894637,42.7041833 68.660655,42.6783833 68.7923588,42.6325167 C68.8592786,42.6088667 68.9397247,42.5809167 69.035121,42.54795 C69.084243,42.53075 69.1340769,42.51355 69.1917418,42.4934833 C69.2415757,42.4727 69.296393,42.4461833 69.3554817,42.4196667 C69.4750831,42.3652 69.606075,42.3107333 69.744898,42.2455167 C69.8780256,42.1645333 70.0261035,42.0892833 70.1798766,42.0032833 C70.3322259,41.9144167 70.4824395,41.79975 70.6461794,41.6901 C70.8049359,41.5754333 70.9615567,41.4356833 71.1288562,41.3038167 C71.2819174,41.1533167 71.4442335,41.0013833 71.5987186,40.8308167 C71.741813,40.6509333 71.9112482,40.4868167 72.0422402,40.27755 C72.3355482,39.8912667 72.5647841,39.4297333 72.7669673,38.94885 C72.9663028,38.4608 73.0809207,37.9311833 73.1514001,37.3915333 C73.1627907,37.25465 73.1741813,37.1184833 73.1820123,36.9816 C73.1905553,36.9113667 73.1884196,36.8454333 73.18486,36.7809333 L73.1820123,36.5809833 L73.1777409,36.3824667 C73.1798766,36.3179667 73.1627907,36.2369833 73.1570954,36.1653167 L73.1058377,35.7424833 C73.0026103,35.1971 72.8431419,34.6639 72.6117703,34.1679667 C72.3690081,33.6820667 72.0835311,33.2191 71.7389654,32.82565 C71.3894162,32.4379333 71.0256289,32.0767333 70.6205505,31.8094167 C70.4269103,31.6567667 70.2133365,31.5585833 70.0204082,31.4360333 C69.8175131,31.3242333 69.6146179,31.2339333 69.4195539,31.14435 C69.2166588,31.0748333 69.0265781,30.9931333 68.8386331,30.9408167 C68.6492644,30.8928 68.4698624,30.8333167 68.2961557,30.7989167 C68.1907926,30.781 68.0968201,30.9229 67.9992881,30.9064167 C68.0199336,30.8075167 68.0427148,30.7666667 68.0640721,30.7666667 L68.3381585,30.7666667 L68.3381585,30.7666667 Z M123.201709,60.9075167 C122.437826,61.6772167 121.64262,62.3974667 120.82392,63.0747167 C120.837447,62.9371167 120.848125,62.79665 120.841718,62.6526 C120.859516,62.1667 120.77907,61.6585833 120.668723,61.14975 C120.54841,60.6394833 120.33982,60.1414 120.087091,59.65765 C120.016611,59.5408333 119.948268,59.4247333 119.874941,59.3072 C119.842193,59.247 119.804461,59.19325 119.76317,59.14165 L119.645705,58.98255 L119.527527,58.8213 C119.495491,58.7689833 119.433555,58.7123667 119.38728,58.6579 L119.102515,58.344 C118.70598,57.9605833 118.27029,57.61945 117.797579,57.3507 C117.318462,57.0962833 116.822971,56.8870167 116.316089,56.7659 C115.809207,56.6555333 115.304461,56.5738333 114.821785,56.59175 C114.579022,56.5795667 114.346227,56.6211333 114.119127,56.6354667 C113.985287,56.65195 113.856431,56.6727333 113.728999,56.6971 C113.985999,56.89705 114.216659,57.1156333 114.401044,57.3535667 C114.522069,57.4883 114.613194,57.6402333 114.70859,57.7807 C114.795444,57.9269 114.870195,58.0745333 114.93925,58.2142833 C114.996203,58.3612 115.061699,58.4952167 115.102278,58.6328167 C115.137874,58.7697 115.179877,58.8972667 115.205505,59.0219667 C115.225439,59.1466667 115.248932,59.2606167 115.264594,59.3674 C115.273849,59.4756167 115.276697,59.5752333 115.282392,59.6641 C115.284528,59.70925 115.287375,59.7515333 115.288799,59.7902333 C115.288799,59.8310833 115.284528,59.8676333 115.283816,59.9020333 C115.283104,59.9149333 115.282392,59.9256833 115.280968,59.9378667 C115.300902,59.9428833 115.321547,59.9471833 115.341481,59.95435 C115.582819,60.0296 115.811343,60.1492833 116.024917,60.2911833 L116.172995,60.408 C116.195776,60.4287833 116.218557,60.4424 116.243474,60.46605 L116.313953,60.53485 C116.361652,60.5828667 116.414333,60.6258667 116.452776,60.6760333 C116.492644,60.7254833 116.533935,60.7735 116.574514,60.82295 C116.612245,60.8724 116.645705,60.9268667 116.682012,60.9770333 L116.731846,61.0558667 L116.776697,61.1382833 C116.804461,61.19275 116.836497,61.2457833 116.860702,61.3016833 C116.883484,61.3597333 116.904841,61.4149167 116.92691,61.4701 C117.007356,61.69585 117.059326,61.92375 117.070717,62.1416167 C117.082819,62.2498333 117.077124,62.3559 117.076412,62.4576667 C117.068581,62.5594333 117.054343,62.6569 117.040816,62.74935 C117.018747,62.8418 117.004509,62.92995 116.978168,63.0109333 C116.948268,63.0912 116.92691,63.1678833 116.896298,63.2366833 C116.86355,63.3054833 116.835785,63.3692667 116.805885,63.4273167 C116.774561,63.4825 116.741813,63.5333833 116.714048,63.5785333 C116.69981,63.6014667 116.68842,63.6229667 116.674181,63.6430333 C116.660655,63.6623833 116.646417,63.6795833 116.633602,63.6960667 C116.607262,63.7283167 116.585904,63.75555 116.56953,63.7784833 C116.533223,63.8222 116.514713,63.8451333 116.514713,63.8451333 C116.514713,63.8451333 116.526815,63.8171833 116.550308,63.7663 C116.563835,63.7419333 116.576649,63.7104 116.595159,63.6731333 C116.603702,63.6552167 116.612957,63.63515 116.624347,63.6143667 C116.631467,63.5935833 116.640009,63.5692167 116.649264,63.5455667 C116.667062,63.4968333 116.68842,63.4438 116.709777,63.3850333 C116.723303,63.3248333 116.743237,63.26105 116.762458,63.19225 C116.780256,63.1241667 116.790223,63.0474833 116.805885,62.9708 C116.817276,62.8926833 116.822259,62.80955 116.831514,62.7242667 C116.832938,62.6382667 116.835074,62.5494 116.83009,62.4562333 C116.819411,62.3645 116.820123,62.2691833 116.798766,62.1738667 C116.771713,61.9810833 116.704794,61.7854333 116.625771,61.59265 C116.543901,61.3984333 116.425724,61.2164 116.29402,61.0444 C116.257712,61.00355 116.222117,60.9619833 116.185809,60.9211333 C116.168723,60.8989167 116.150214,60.881 116.129568,60.8638 L116.072615,60.8086167 L116.015662,60.7534333 C115.997864,60.7348 115.970812,60.7168833 115.94803,60.6989667 L115.814191,60.5943333 C115.630517,60.47035 115.436165,60.3664333 115.231134,60.2933333 C115.023968,60.2266833 114.813242,60.1793833 114.605363,60.1664833 C114.397485,60.1586 114.193166,60.1614667 114.003085,60.2016 C113.905553,60.2145 113.8187,60.2481833 113.728287,60.2689667 C113.640721,60.2954833 113.557428,60.32845 113.477693,60.35855 C113.401519,60.3979667 113.324632,60.4295 113.257,60.4674833 C113.190081,60.5083333 113.123161,60.5441667 113.064784,60.5835833 C113.007119,60.6258667 112.953014,60.6652833 112.90318,60.7011167 C112.856906,60.7391 112.812767,60.7778 112.775036,60.8107667 C112.755814,60.8286833 112.73588,60.84445 112.718794,60.8587833 C112.701709,60.8759833 112.68747,60.89175 112.673232,60.9060833 C112.644044,60.9354667 112.619839,60.96055 112.600617,60.9806167 C112.56075,61.02075 112.539393,61.0415333 112.539393,61.0415333 C112.539393,61.0415333 112.555055,61.01645 112.583531,60.9684333 C112.598481,60.94335 112.616991,60.91325 112.637636,60.8795667 C112.649739,60.8609333 112.659706,60.8430167 112.673232,60.82295 C112.68747,60.8043167 112.703844,60.78425 112.719506,60.7634667 C112.751542,60.7211833 112.789274,60.6738833 112.829853,60.623 C112.874703,60.5771333 112.924537,60.5269667 112.977219,60.4732167 C113.031324,60.4216167 113.096108,60.3736 113.160892,60.3191333 C113.2271,60.2661 113.306122,60.2231 113.383009,60.1707833 C113.464879,60.12635 113.551732,60.07905 113.643569,60.0382 C113.738253,60.00165 113.835785,59.9593667 113.94186,59.9342833 C114.147603,59.8705 114.376839,59.84255 114.61533,59.8396833 C114.675131,59.8418333 114.735643,59.8447 114.795444,59.8475667 C114.855956,59.8504333 114.916469,59.8633333 114.978405,59.8697833 L115.06953,59.8834 L115.159231,59.9049 C115.177029,59.9099167 115.194115,59.9149333 115.210489,59.9192333 C115.210489,59.91565 115.209777,59.9120667 115.209065,59.9092 C115.204082,59.8748 115.197674,59.8389667 115.191267,59.8009833 C115.182012,59.7637167 115.172757,59.7228667 115.161367,59.6813 C115.140009,59.59745 115.11794,59.5042833 115.090176,59.40395 C115.053868,59.3064833 115.018272,59.2011333 114.978405,59.0893333 C114.93925,58.9768167 114.879449,58.8650167 114.826056,58.7446167 C114.769815,58.62565 114.6972,58.5066833 114.627432,58.3812667 C114.547698,58.2615833 114.465828,58.1368833 114.372568,58.01505 C114.26934,57.9003833 114.179639,57.76995 114.058614,57.6595833 C113.838633,57.42165 113.560987,57.2188333 113.269815,57.0310667 C112.973659,56.84545 112.638348,56.7092833 112.292359,56.6010667 C112.204794,56.5795667 112.116516,56.55735 112.026815,56.5365667 C111.983389,56.52295 111.940674,56.5165 111.895823,56.5114833 L111.765543,56.49285 L111.634551,56.4720667 C111.592549,56.4634667 111.538443,56.4641833 111.490033,56.4620333 L111.207404,56.4484167 C110.839345,56.4563 110.471998,56.50145 110.122449,56.60035 C109.777171,56.70785 109.443996,56.84545 109.145705,57.03035 C108.854533,57.2188333 108.576175,57.4202167 108.356906,57.6595833 C108.23588,57.76995 108.146179,57.9003833 108.042952,58.01505 C107.948268,58.1368833 107.865686,58.2615833 107.786664,58.38055 C107.71832,58.5066833 107.644993,58.62565 107.58804,58.7431833 C107.535358,58.8643 107.474846,58.9768167 107.435691,59.0879 C107.397247,59.2004167 107.360228,59.3064833 107.324632,59.4046667 C107.297579,59.50285 107.27551,59.5960167 107.254865,59.6784333 C107.244186,59.7207167 107.232795,59.76085 107.223541,59.7988333 C107.21571,59.8368167 107.211438,59.87265 107.205743,59.90705 C107.194352,59.9751333 107.185097,60.0324667 107.177978,60.07905 C107.160892,60.1722167 107.153061,60.2223833 107.153061,60.2223833 C107.153061,60.2223833 107.149502,60.1707833 107.143094,60.0769 C107.139535,60.0296 107.136687,59.9722667 107.132416,59.9034667 C107.13028,59.8690667 107.126009,59.8325167 107.126009,59.7931 C107.128856,59.7536833 107.13028,59.7121167 107.134551,59.66625 C107.138111,59.5773833 107.143094,59.47705 107.151637,59.3674 C107.168723,59.2606167 107.189369,59.14595 107.211438,59.0219667 C107.235643,58.8972667 107.278358,58.7697 107.314665,58.6328167 C107.355244,58.4952167 107.420028,58.3612 107.476981,58.2142833 C107.547461,58.0745333 107.6215,57.9269 107.708353,57.7807 C107.802326,57.64095 107.894874,57.4890167 108.015899,57.3535667 C108.063598,57.2919333 108.115567,57.2331667 108.168249,57.1736833 C108.087803,57.1113333 108.001661,57.0525667 107.914096,56.9952333 C107.724727,56.8762667 107.510441,56.78955 107.287613,56.7193167 C107.23066,56.7057 107.175131,56.6913667 107.117466,56.6784667 C107.088989,56.6705833 107.061224,56.6655667 107.03346,56.6619833 L106.949454,56.6498 L106.865449,56.6369 C106.839108,56.6311667 106.803512,56.6326 106.772188,56.63045 L106.592074,56.6211333 C106.354295,56.6268667 106.120788,56.65625 105.895823,56.7186 C105.736355,56.76805 105.58543,56.83255 105.440199,56.9063667 C105.474371,57.00885 105.509255,57.1113333 105.534884,57.2145333 C105.562648,57.3564333 105.593261,57.49475 105.623161,57.6337833 C105.714286,58.19135 105.743474,58.7403167 105.681538,59.2498667 C105.666588,59.5078667 105.608211,59.7508167 105.564784,59.9873167 C105.507119,60.2202333 105.433792,60.44025 105.36616,60.6502333 C105.276459,60.8537667 105.207404,61.0544333 105.11272,61.23145 C105.01234,61.4056 104.928334,61.5747333 104.829378,61.7223667 C104.727575,61.8685667 104.635738,62.0061667 104.545325,62.128 C104.448505,62.2455333 104.353109,62.3480167 104.269103,62.4426167 C104.227812,62.4899167 104.187945,62.5336333 104.150925,62.5759167 C104.11177,62.6153333 104.071903,62.6475833 104.036308,62.68055 C103.963692,62.7464833 103.901044,62.80095 103.850498,62.8453833 C103.778595,62.90845 103.731609,62.9493 103.710963,62.9679333 C103.844091,62.9966 103.976507,63.031 104.106787,63.0725667 L104.325344,63.1635833 C104.360228,63.17935 104.392264,63.1886667 104.431419,63.2101667 L104.541054,63.2689333 C104.612245,63.3090667 104.693403,63.3441833 104.756051,63.3922 C104.822259,63.4380667 104.887043,63.4825 104.953963,63.5290833 C105.017323,63.5763833 105.0757,63.6301333 105.136925,63.6803 L105.225202,63.7584167 L105.305648,63.8422667 C105.359041,63.9003167 105.415994,63.95335 105.464404,64.01355 C105.509967,64.0751833 105.556953,64.1353833 105.603227,64.1955833 C105.776222,64.4414 105.917181,64.6994 106.004034,64.9609833 C106.056716,65.08855 106.08448,65.2189833 106.117228,65.3429667 C106.142145,65.4691 106.159231,65.5923667 106.174893,65.7099 C106.178453,65.8288667 106.190555,65.9413833 106.185572,66.0496 C106.178453,66.1563833 106.176317,66.25815 106.162791,66.3520333 C106.147841,66.4459167 106.135026,66.5340667 106.118652,66.6143333 C106.09943,66.6938833 106.077361,66.7648333 106.058851,66.83005 C106.048173,66.8630167 106.041766,66.8931167 106.032511,66.9217833 C106.022544,66.9497333 106.011153,66.9748167 105.999763,67.0006167 C105.980541,67.0479167 105.962743,67.0887667 105.949929,67.12245 C105.92074,67.1876667 105.906502,67.2227833 105.906502,67.2227833 C105.906502,67.2227833 105.912197,67.1848 105.923588,67.1152833 C105.930707,67.07945 105.937114,67.03645 105.947081,66.9862833 C105.952065,66.9597667 105.954912,66.93325 105.959896,66.9045833 C105.962743,66.8759167 105.965591,66.8443833 105.967727,66.8121333 C105.973422,66.7462 105.981253,66.67525 105.986236,66.5964167 C105.984101,66.5175833 105.985524,66.4337333 105.986236,66.34415 C105.984813,66.2545667 105.971286,66.15925 105.962743,66.0596333 C105.952065,65.9600167 105.92786,65.85825 105.912197,65.75075 C105.883009,65.6454 105.855956,65.5364667 105.818937,65.4253833 C105.77551,65.3186 105.743474,65.2025 105.684385,65.0935667 C105.586141,64.8685333 105.439487,64.65425 105.277883,64.4471333 C105.11272,64.2393 104.907689,64.0579833 104.687708,63.8945833 C104.630043,63.8566 104.57309,63.8186167 104.514713,63.78135 C104.486948,63.7612833 104.457048,63.7462333 104.428571,63.7304667 L104.340294,63.6846 L104.252017,63.6365833 C104.224252,63.6201 104.184385,63.6072 104.150925,63.5935833 L103.953726,63.5118833 C103.688894,63.4251667 103.414808,63.3656833 103.141433,63.34705 C102.868059,63.3377333 102.596108,63.35135 102.338396,63.4086833 C102.082819,63.4688833 101.835074,63.5427 101.618652,63.6580833 C101.504746,63.7061 101.410062,63.77705 101.308258,63.8336667 C101.210726,63.8960167 101.120313,63.9641 101.03346,64.0286 C100.954438,64.1024167 100.872568,64.1676333 100.802088,64.2378667 C100.734457,64.31025 100.664689,64.3754667 100.60916,64.4449833 C100.552919,64.5152167 100.500237,64.5818667 100.451115,64.6427833 C100.406977,64.70585 100.368533,64.76605 100.332226,64.8212333 C100.315852,64.84775 100.297342,64.8742667 100.28168,64.8979167 C100.26673,64.923 100.253204,64.9480833 100.240389,64.9710167 C100.216184,65.0161667 100.196251,65.0548667 100.178453,65.0856833 C100.144281,65.14875 100.124347,65.1817167 100.124347,65.1817167 C100.124347,65.1817167 100.135738,65.1458833 100.154248,65.07565 C100.164215,65.0419667 100.175605,64.9996833 100.189843,64.9495167 C100.196963,64.92515 100.20337,64.8979167 100.212625,64.8699667 C100.224015,64.8420167 100.236118,64.8126333 100.249644,64.7811 C100.275985,64.7194667 100.303749,64.6485167 100.337209,64.5732667 C100.374941,64.5008833 100.417655,64.4242 100.466065,64.3410667 C100.513764,64.25865 100.5757,64.1791 100.636213,64.0902333 C100.698149,64.0020833 100.777883,63.9225333 100.855482,63.83295 C100.939487,63.7498167 101.030612,63.6638167 101.127432,63.5821167 C101.229948,63.5054333 101.333887,63.4215833 101.452776,63.3549333 C101.682724,63.2058667 101.953251,63.0926333 102.241576,63.0080667 C102.314191,62.99015 102.38823,62.9722333 102.462981,62.9536 C102.537019,62.93855 102.613906,62.9321 102.691505,62.9199167 L102.806834,62.9048667 L102.9243,62.9005667 C103.00261,62.8991333 103.081633,62.8926833 103.161367,62.8962667 C103.343617,62.902 103.525866,62.9285167 103.706692,62.9665 C103.722354,62.9435667 103.759374,62.8919667 103.814903,62.8109833 C103.852634,62.75795 103.900332,62.6913 103.95515,62.6131833 C103.982914,62.5737667 104.012103,62.5322 104.045562,62.4877667 C104.071903,62.4404667 104.101804,62.3910167 104.133128,62.3379833 C104.194352,62.2319167 104.26412,62.11725 104.336735,61.9904 C104.395823,61.8556667 104.466303,61.7152 104.538206,61.5639833 C104.608685,61.4127667 104.660655,61.24005 104.727575,61.0666167 C104.788799,60.89175 104.832226,60.6996833 104.888467,60.5054667 C104.92691,60.3055167 104.969625,60.0984 104.995966,59.8826833 C105.008068,59.6655333 105.047935,59.4448 105.035121,59.2133167 C105.051495,58.75465 104.976032,58.2744833 104.871381,57.7928833 C104.759611,57.30985 104.560275,56.839 104.323208,56.3832 C104.257,56.2728333 104.190793,56.1631833 104.122449,56.0513833 C104.091837,55.99405 104.054817,55.9438833 104.016374,55.8944333 L103.905316,55.7453667 L103.794969,55.59415 C103.762221,55.5432667 103.704556,55.4895167 103.66113,55.4386333 L103.392738,55.1405 C103.016849,54.7793 102.604651,54.4560833 102.158282,54.2016667 C101.706217,53.9623 101.237067,53.7637833 100.758662,53.65055 C100.279544,53.5444833 99.8025629,53.4670833 99.344803,53.485 C99.1162791,53.4735333 98.89701,53.5136667 98.6813004,53.52585 C98.4670147,53.55165 98.2598481,53.5939333 98.0626483,53.6326333 C97.8690081,53.6899667 97.6789274,53.7336833 97.5052207,53.7953167 C97.3329378,53.8626833 97.160655,53.9157167 97.0111533,53.9852333 C96.8602278,54.0583333 96.7206929,54.1285667 96.5875653,54.1902 C96.4629805,54.2604333 96.3497864,54.3313833 96.2458472,54.3930167 C96.1924537,54.4238333 96.1426198,54.4532167 96.0963455,54.4818833 C96.0507831,54.5127 96.0094922,54.5442333 95.9696251,54.5721833 C95.8927385,54.6280833 95.8258187,54.6761 95.7724252,54.7148 C95.6635026,54.7914833 95.6051258,54.8323333 95.6051258,54.8323333 C95.6051258,54.8323333 95.6528239,54.7793 95.7389654,54.67825 C95.782392,54.6280833 95.8372093,54.56645 95.8998576,54.4940667 C95.9318937,54.4582333 95.9646417,54.4181 96.0045088,54.3786833 C96.0450878,54.3414167 96.0885145,54.302 96.1362126,54.2597167 C96.2301851,54.1758667 96.3348363,54.08055 96.450878,53.9802167 C96.573327,53.8899167 96.7100142,53.7960333 96.8545325,53.6928333 C96.9470812,53.6297667 97.0510204,53.5724333 97.1570954,53.5136667 C97.1421452,53.4018667 97.1207879,53.2900667 97.0965828,53.1782667 C97.0389179,52.9303 96.9371144,52.6902167 96.8153773,52.4580167 C96.7833412,52.4014 96.7498813,52.3447833 96.7135738,52.28745 C96.6993355,52.2587833 96.679402,52.2329833 96.6594684,52.2086167 L96.655197,52.2021667 C96.6025154,52.1333667 96.5526815,52.06385 96.4971523,51.9972 C96.4900332,51.9893167 96.4850498,51.9828667 96.4786426,51.9757 L96.3419554,51.82305 C96.149739,51.63815 95.9390128,51.4740333 95.7119127,51.3443167 C95.5111533,51.23825 95.3032748,51.1493833 95.0939725,51.0891833 C95.0882772,51.2776667 95.0768866,51.464 95.0548173,51.6460333 C95.0377314,51.9757 94.9622686,52.2888833 94.9053156,52.5913167 C94.8305648,52.8916 94.7373042,53.1754 94.649739,53.44415 C94.5344091,53.7057333 94.4461319,53.9630167 94.3251068,54.1902 C94.1962506,54.4145167 94.0880399,54.6323833 93.9613194,54.8223 C93.8296156,55.0100667 93.7114381,55.18565 93.5953963,55.3433167 C93.4693878,55.4931 93.3476507,55.6256833 93.2408638,55.7460833 C93.1881822,55.807 93.1369245,55.8643333 93.0899383,55.9173667 C93.0386806,55.9675333 92.9874229,56.01125 92.9404366,56.0528167 C92.9383009,56.0556833 92.9354533,56.0571167 92.9333175,56.0599833 C93.2750356,56.2714 93.5939725,56.5258167 93.8887043,56.80675 L94.1414333,57.0898333 C94.1805885,57.1364167 94.2204556,57.1744 94.2610346,57.2303 L94.3792121,57.39155 C94.4532511,57.5004833 94.5443759,57.6051167 94.6020408,57.71835 C94.6646891,57.83015 94.7301851,57.9412333 94.7928334,58.0516 C94.8526341,58.1641167 94.8981965,58.2830833 94.9515899,58.39775 L95.0256289,58.5711833 L95.0847176,58.7489167 C95.1203132,58.8678833 95.1651637,58.9839833 95.1943522,59.10295 C95.2185572,59.22335 95.244898,59.3430333 95.2698149,59.4612833 C95.3481253,59.9357167 95.3730422,60.4051333 95.3203607,60.8415833 C95.3082582,61.0601667 95.2570005,61.2687167 95.219981,61.4701 C95.170859,61.6686167 95.1089226,61.8571 95.0498339,62.0362667 C94.9736592,62.2097 94.9152824,62.3802667 94.8341243,62.5322 C94.7486948,62.68055 94.6775036,62.8260333 94.5934979,62.9521667 C94.5059326,63.0768667 94.4276222,63.1929667 94.3500237,63.2983167 C94.2667299,63.3972167 94.1862838,63.4853667 94.1143806,63.56635 C94.0794969,63.6057667 94.046037,63.64375 94.013289,63.6795833 C93.9798291,63.7139833 93.9456573,63.7419333 93.9150451,63.7698833 C93.8943996,63.7878 93.8794495,63.8007 93.8609397,63.8171833 C93.9022307,63.8293667 93.9413859,63.8422667 93.9826768,63.8551667 L94.0638348,63.8816833 L94.144281,63.9168 C94.1969625,63.9411667 94.2517798,63.9626667 94.3030375,63.9906167 C94.5137636,64.1002667 94.7045562,64.2486167 94.8789748,64.41345 L94.9964404,64.5453167 C95.0142383,64.5675333 95.032748,64.5847333 95.0519696,64.6105333 L95.106075,64.6850667 C95.1402468,64.73595 95.1836735,64.7846833 95.2107262,64.8377167 C95.2392027,64.8893167 95.2698149,64.9416333 95.2990033,64.9925167 C95.326056,65.0441167 95.3481253,65.0993 95.3723303,65.1523333 L95.4065021,65.2333167 L95.4335548,65.31645 C95.4520645,65.3709167 95.4712862,65.4253833 95.4855244,65.47985 C95.496915,65.5364667 95.5083056,65.5923667 95.5196963,65.6468333 C95.5567157,65.8682833 95.5688182,66.0847167 95.5431894,66.28825 C95.538206,66.3900167 95.5140009,66.4867667 95.497627,66.58065 C95.4741338,66.6731 95.4456573,66.7598167 95.4186047,66.8436667 C95.383009,66.9239333 95.3566682,67.0034833 95.318225,67.073 C95.2783579,67.1432333 95.244898,67.2106 95.2057428,67.26865 C95.1651637,67.3267 95.1288562,67.3811667 95.0939725,67.4284667 C95.0548173,67.47505 95.0170859,67.5166167 94.983626,67.5538833 C94.967252,67.5725167 94.950878,67.5897167 94.9366398,67.6062 C94.9209777,67.6226833 94.9053156,67.6348667 94.8903654,67.6484833 C94.8618889,67.6742833 94.8376839,67.6957833 94.8177504,67.7137 C94.7778832,67.7481 94.7565259,67.7667333 94.7565259,67.7667333 C94.7565259,67.7667333 94.7728999,67.7438 94.8035121,67.7000833 C94.8191742,67.6785833 94.836972,67.6527833 94.8590413,67.62125 C94.8704319,67.6054833 94.8818225,67.5897167 94.8953488,67.5710833 C94.9053156,67.5531667 94.9174181,67.5338167 94.9295206,67.5123167 C94.9537257,67.47075 94.9814903,67.4241667 95.0099668,67.3747167 C95.0341718,67.3209667 95.0619364,67.2650667 95.0911248,67.2055833 C95.1188894,67.1461 95.1381111,67.0773 95.1651637,67.0077833 C95.1893688,66.9389833 95.2071666,66.8623 95.2299478,66.7856167 C95.244898,66.7060667 95.26056,66.62365 95.2719506,66.5383667 C95.2762221,66.4523667 95.2925961,66.3649333 95.2876127,66.2739167 C95.2940199,66.0911667 95.2648315,65.90125 95.2228287,65.7099 C95.1779782,65.5178333 95.0982439,65.3322167 95.0056953,65.1516167 C94.9779307,65.1064667 94.9530138,65.0634667 94.9259611,65.01975 C94.9138586,64.9975333 94.8981965,64.9760333 94.8832463,64.9574 L94.8391077,64.8979167 L94.7956811,64.8377167 C94.7821547,64.81765 94.7607973,64.79615 94.7422876,64.7760833 L94.6355007,64.6578333 C94.486711,64.5145 94.323683,64.3869333 94.1464167,64.2858833 C93.9670147,64.1912833 93.7812055,64.1117333 93.5911248,64.0665833 C93.4017561,64.0250167 93.2123873,63.9942 93.0301376,64.00065 C92.9404366,63.99635 92.8528714,64.01355 92.7674419,64.01785 C92.6820123,64.0286 92.6008543,64.0443667 92.521832,64.0594167 C92.4456573,64.08235 92.3694827,64.1002667 92.301851,64.1246333 C92.2327954,64.15115 92.1644518,64.1712167 92.1053631,64.1991667 C92.0455624,64.22855 91.9900332,64.2572167 91.9380636,64.2808667 C91.8875178,64.3088167 91.8426673,64.3374833 91.8013764,64.36185 C91.7821547,64.3733167 91.7643569,64.3840667 91.7465591,64.3941 C91.9878975,64.5317 92.2114381,64.7051333 92.4164689,64.89935 L92.570954,65.0727833 C92.595159,65.1021667 92.619364,65.1236667 92.6435691,65.1580667 L92.7154722,65.2569667 C92.7603227,65.3236167 92.8158519,65.3874 92.8521595,65.4562 C92.8898908,65.525 92.9297579,65.5923667 92.9689131,65.66045 C93.0045088,65.7278167 93.0329853,65.8016333 93.0657333,65.8704333 L93.1105838,65.9772167 L93.1454675,66.0847167 C93.1675368,66.1585333 93.1967252,66.2287667 93.2138111,66.3018667 C93.2287613,66.3756833 93.2444234,66.44735 93.2593735,66.52045 C93.3077836,66.8099833 93.3227337,67.09665 93.2892738,67.36325 C93.2828666,67.49655 93.2529663,67.6241167 93.2287613,67.7466667 C93.1988609,67.8685 93.1618415,67.9831667 93.1262458,68.0921 C93.0785477,68.1981667 93.0429521,68.3020833 92.9931182,68.3945333 C92.9411486,68.48555 92.8977219,68.5744167 92.8464642,68.6511 C92.7930707,68.7277833 92.7453726,68.7987333 92.6969625,68.8618 C92.6471286,68.9234333 92.5980066,68.9764667 92.55458,69.0266333 C92.5317988,69.051 92.5125771,69.0732167 92.4919317,69.0954333 C92.47271,69.1162167 92.4520645,69.1334167 92.4328429,69.1506167 C92.3951115,69.1843 92.3630755,69.21225 92.3367347,69.2359 C92.2833412,69.2817667 92.2562886,69.3054167 92.2562886,69.3054167 C92.2562886,69.3054167 92.276934,69.2753167 92.3175131,69.2179833 C92.3381585,69.19075 92.3616516,69.1556333 92.391552,69.1155 C92.4057902,69.0947167 92.4207404,69.0732167 92.4371144,69.0495667 C92.4520645,69.0259167 92.4670147,68.9994 92.4826768,68.97145 C92.5161367,68.9162667 92.5517323,68.8560667 92.5894637,68.79085 C92.6200759,68.7206167 92.6570954,68.6468 92.6948268,68.5679667 C92.7318462,68.48985 92.758187,68.4002667 92.7930707,68.3099667 C92.8251068,68.2182333 92.847888,68.1171833 92.8770764,68.01685 C92.8977219,67.9122167 92.9190793,67.8047167 92.9318937,67.6914833 C92.9383009,67.5789667 92.9603702,67.4643 92.953963,67.3431833 C92.961794,67.1038167 92.9226388,66.8544167 92.8685335,66.6028667 C92.8101566,66.3506 92.7062174,66.1062167 92.5823446,65.8682833 C92.5474608,65.8102333 92.5140009,65.7529 92.4776934,65.6955667 C92.4613194,65.6661833 92.4420978,65.63895 92.4221642,65.6138667 L92.3644993,65.5364667 L92.3075463,65.4562 C92.2897485,65.4296833 92.2598481,65.40245 92.2370669,65.3752167 L92.0968201,65.2211333 C91.9017561,65.03265 91.6867584,64.8642333 91.4532511,64.73165 C91.217608,64.60695 90.9748458,64.5030333 90.7249644,64.4442667 C90.4743711,64.3890833 90.2259136,64.3482333 89.9888467,64.35755 C89.8685335,64.3518167 89.7546274,64.3733167 89.6428571,64.3783333 C89.5303749,64.3926667 89.4221642,64.4148833 89.3196488,64.43495 C89.2192691,64.4643333 89.1196013,64.4879833 89.0291884,64.5202333 C88.9387755,64.55535 88.8497864,64.5825833 88.771476,64.6191333 C88.6931656,64.6564 88.6205505,64.6936667 88.5507831,64.7259167 C88.4852871,64.7624667 88.4269103,64.7983 88.372093,64.83055 C88.3457523,64.84775 88.3186996,64.8628 88.2944945,64.8771333 C88.2717133,64.8929 88.2489321,64.9101 88.2297105,64.9237167 C88.1877076,64.9538167 88.1542477,64.9789 88.1264832,64.9989667 C88.0695301,65.0391 88.0389179,65.0606 88.0389179,65.0606 C88.0389179,65.0606 88.0638348,65.03265 88.1093972,64.9789 C88.1314665,64.9538167 88.1592311,64.9215667 88.1919791,64.8835833 C88.2104888,64.86495 88.2268628,64.8441667 88.2467964,64.8241 C88.2674419,64.8040333 88.290935,64.78325 88.3158519,64.7624667 C88.3649739,64.7180333 88.4190793,64.6685833 88.4803037,64.61555 C88.543664,64.5689667 88.6141433,64.5202333 88.690318,64.4664833 C88.7664926,64.4148833 88.8540579,64.3718833 88.9444708,64.31885 C89.0363075,64.2686833 89.1395349,64.23285 89.244898,64.1862667 C89.3531087,64.1504333 89.4677266,64.11245 89.5887518,64.0816333 C89.7104888,64.0579833 89.8372093,64.0271667 89.970337,64.02 C90.2337447,63.9884667 90.5185097,64.0035167 90.8054105,64.0508167 C90.8787375,64.0665833 90.9506407,64.0816333 91.0232558,64.0988333 C91.095159,64.1153167 91.1656383,64.1432667 91.2389654,64.1647667 L91.3464642,64.2006 L91.4504034,64.2471833 C91.5208828,64.2794333 91.592786,64.3073833 91.6604177,64.34465 C91.6732321,64.3503833 91.6846227,64.3589833 91.6967252,64.3654333 C91.7002848,64.36185 91.7031324,64.3589833 91.7059801,64.3561167 C91.7216421,64.3410667 91.7401519,64.3253 91.7586616,64.3088167 C91.7956811,64.27585 91.836972,64.23715 91.8832463,64.1977333 C91.9316564,64.1619 91.9850498,64.1246333 92.0427148,64.0845 C92.1010916,64.0458 92.1680114,64.0121167 92.2370669,63.9712667 C92.3075463,63.9332833 92.3851448,63.90605 92.464879,63.8702167 C92.5474608,63.8429833 92.635738,63.8143167 92.7261509,63.7913833 C92.8194115,63.7741833 92.9162316,63.7498167 93.0173232,63.7448 C93.2180826,63.7197167 93.4337921,63.7319 93.6530612,63.76845 C93.6979117,63.77705 93.7413384,63.7870833 93.7869008,63.7964 C93.8046986,63.7706 93.8239203,63.74265 93.8474134,63.7118333 C93.8716184,63.67815 93.8943996,63.6423167 93.923588,63.6043333 C93.9456573,63.5649167 93.9712862,63.5219167 93.997627,63.4767667 C94.0510204,63.3864667 94.1108211,63.2882833 94.1720456,63.1800667 C94.2233033,63.0646833 94.282392,62.945 94.3443284,62.8167167 C94.4041291,62.6862833 94.4489796,62.5393667 94.5059326,62.39245 C94.5579022,62.24195 94.5956336,62.0778333 94.6433318,61.9122833 C94.6760797,61.7417167 94.7116754,61.5654167 94.7337447,61.3805167 C94.7437114,61.1956167 94.7778832,61.0064167 94.7693403,60.81005 C94.7828666,60.4173167 94.7180826,60.0073833 94.6290935,59.59745 C94.5336972,59.1839333 94.3635501,58.7826 94.160655,58.39345 C94.1037019,58.2995667 94.0474608,58.20425 93.989084,58.1103667 C93.9634551,58.0616333 93.9307072,58.0179167 93.8979592,57.97635 L93.8032748,57.8487833 L93.7085904,57.71835 C93.6822496,57.6760667 93.6324158,57.6302 93.5953963,57.5864833 L93.3654485,57.3320667 C93.0450878,57.0239 92.6941149,56.7487 92.3118178,56.5308333 C91.9259611,56.3273 91.5258662,56.1567333 91.1172283,56.0599833 C90.7071666,55.9704 90.3013764,55.9030333 89.9105363,55.9188 C89.7154722,55.9087667 89.5282392,55.9438833 89.3438538,55.9539167 C89.1608923,55.97685 88.9843379,56.0126833 88.8156146,56.0442167 C88.6511628,56.0936667 88.4881348,56.13165 88.339345,56.1846833 C88.192691,56.2413 88.046037,56.28645 87.9186047,56.3459333 C87.7897485,56.4082833 87.6701471,56.4684833 87.556953,56.5208 C87.5113906,56.5473167 87.4743711,56.5695333 87.4316564,56.5946167 C87.4807784,56.7472667 87.5355956,56.8984833 87.5726151,57.0511333 C87.6067869,57.2217 87.6438064,57.3901167 87.6801139,57.5578167 C87.7904604,58.2314833 87.8274798,58.8958333 87.7505933,59.5136 C87.7349312,59.8239167 87.6623161,60.1191833 87.6103465,60.4051333 C87.5391552,60.6867833 87.4515899,60.9533833 87.3690081,61.2070833 C87.2615093,61.4529 87.1775036,61.6951333 87.0628856,61.9094167 C86.9411486,62.1208333 86.840057,62.3258 86.7211675,62.50425 C86.5980066,62.6812667 86.4862364,62.8468167 86.3766018,62.9951667 C86.2584243,63.13635 86.1430944,63.2617667 86.0427148,63.375 C85.992169,63.4323333 85.9451827,63.4853667 85.9010441,63.53625 C85.8526341,63.58355 85.804224,63.6244 85.7600854,63.6631 C85.6718083,63.74265 85.5984813,63.8085833 85.5372568,63.8623333 C85.4162316,63.9669667 85.3514476,64.0243 85.3514476,64.0243 C85.3514476,64.0243 85.4005695,63.95335 85.4924063,63.8207667 C85.5393925,63.7562667 85.5963455,63.676 85.6632653,63.5814 C85.6967252,63.5333833 85.7323208,63.4839333 85.771476,63.4294667 C85.804224,63.3735667 85.8405316,63.3119333 85.8768391,63.2474333 C85.9530138,63.1205833 86.0370195,62.98155 86.1245847,62.8274667 C86.1971998,62.6655 86.2812055,62.49565 86.3694827,62.3129 C86.4527765,62.1294333 86.5161367,61.9208833 86.5980066,61.7116167 C86.6706217,61.4994833 86.7247271,61.2672833 86.7930707,61.0322167 C86.839345,60.7899833 86.8891789,60.53915 86.921215,60.279 C86.9354533,60.0159833 86.9838633,59.7486667 86.970337,59.4698833 C86.9902705,58.91375 86.8984338,58.3325333 86.7717133,57.7506 C86.6371618,57.1665167 86.3958234,56.59605 86.1089226,56.0442167 C86.0270527,55.9116333 85.9480304,55.7776167 85.8654485,55.6443167 C85.8277171,55.5748 85.7828666,55.5138833 85.7365923,55.4536833 L85.6027527,55.2723667 L85.4696251,55.0903333 C85.4297579,55.0287 85.3607024,54.9649167 85.3065971,54.9011333 L84.981253,54.5420833 C84.5277646,54.1042 84.0294257,53.7143333 83.4883721,53.4061667 C82.9416232,53.1166333 82.3749407,52.87655 81.7947318,52.7382333 C81.2152349,52.6113833 80.6385857,52.5175 80.0861414,52.5382833 C79.8092074,52.52395 79.5443759,52.5741167 79.2838159,52.58845 C79.0232558,52.6199833 78.7740864,52.6715833 78.5348837,52.71745 C78.3006645,52.7876833 78.0700047,52.84 77.8599905,52.9145333 C77.6528239,52.9962333 77.4442335,53.0585833 77.2626958,53.1445833 C77.0804461,53.2327333 76.9110109,53.3180167 76.7508306,53.3918333 C76.5991932,53.4778333 76.461794,53.5631167 76.3357855,53.6369333 C76.2738491,53.6749167 76.2126246,53.7114667 76.1556716,53.74515 C76.1008543,53.7817 76.0517323,53.8196833 76.0033223,53.8533667 C75.9086379,53.92145 75.8289037,53.9802167 75.7641196,54.0275167 C75.6331277,54.1199667 75.5626483,54.1687 75.5626483,54.1687 C75.5626483,54.1687 75.6181775,54.1042 75.7242525,53.9830833 C75.776934,53.9221667 75.8431419,53.8469167 75.9193166,53.7602 C75.9591837,53.7164833 75.996915,53.66775 76.0453251,53.6197333 C76.0937352,53.5745833 76.1471286,53.5265667 76.2047935,53.4756833 C76.3186996,53.37535 76.4447081,53.25925 76.5856668,53.1381333 C76.7330327,53.0292 76.8974846,52.91525 77.0726151,52.7912667 C77.2498813,52.6715833 77.4542003,52.5705333 77.6635026,52.4479833 C77.8763645,52.3311667 78.1177029,52.24875 78.361177,52.1405333 C78.6124822,52.0574 78.8780256,51.9685333 79.1592311,51.8983 C79.3485999,51.8624667 79.5457997,51.81875 79.7465591,51.7879333 C79.7330327,51.7148333 79.7202183,51.6403 79.7031324,51.5664833 C79.6419079,51.2970167 79.5294257,51.034 79.3984338,50.7810167 C79.3607024,50.7193833 79.3243949,50.65775 79.2873754,50.5968333 C79.2688657,50.5645833 79.2482202,50.5366333 79.2275748,50.5086833 L79.1656383,50.42555 L79.1044139,50.3402667 C79.0851922,50.3123167 79.0538681,50.2829333 79.029663,50.2542667 L78.8794495,50.0887167 C78.670859,49.8873333 78.4409112,49.7081667 78.1924537,49.56555 C77.9404366,49.4329667 77.6805885,49.3226 77.4136213,49.2595333 C77.146654,49.20005 76.8818225,49.15705 76.6262458,49.1670833 C76.4988135,49.1606333 76.3777883,49.18285 76.2567632,49.1900167 C76.1371618,49.20435 76.0225439,49.228 75.9114855,49.2487833 C75.8046986,49.2810333 75.6979117,49.3054 75.6025154,49.3398 C75.5056953,49.3770667 75.410299,49.40645 75.3270052,49.4458667 C75.2422876,49.486 75.1646891,49.5261333 75.0913621,49.5598167 C75.0208828,49.5985167 74.9575225,49.6379333 74.8998576,49.6723333 C74.8713811,49.6895333 74.8421927,49.7067333 74.8172757,49.7217833 C74.7923588,49.7389833 74.7688657,49.7569 74.7467964,49.7726667 C74.7112008,49.7984667 74.6827243,49.8199667 74.6556716,49.8393167 C74.6713336,49.8916333 74.6898434,49.9418 74.7033697,49.9934 C74.7147603,50.0493 74.7261509,50.1052 74.7382534,50.1603833 C74.774561,50.3804 74.7866635,50.5982667 74.7617466,50.8010833 C74.7560513,50.90285 74.7325581,50.9996 74.7147603,51.0934833 C74.6919791,51.1852167 74.6635026,51.27265 74.6364499,51.3565 C74.6008543,51.4367667 74.5738016,51.5163167 74.5360702,51.58655 C74.4962031,51.6560667 74.4627432,51.7227167 74.423588,51.7814833 C74.3837209,51.8388167 74.3467015,51.894 74.3111058,51.9427333 C74.2719506,51.9886 74.2342193,52.02945 74.2021832,52.0674333 C74.1858092,52.0860667 74.1694352,52.1032667 74.154485,52.11975 C74.138823,52.1348 74.1231609,52.1491333 74.1089226,52.1620333 C74.0804461,52.1871167 74.0562411,52.2093333 74.0355956,52.2258167 C73.9957285,52.2609333 73.9750831,52.2795667 73.9750831,52.2795667 C73.9750831,52.2795667 73.991457,52.2566333 74.0206455,52.2129167 C74.0355956,52.1914167 74.0548173,52.1656167 74.0775985,52.1340833 C74.0882772,52.1183167 74.0996678,52.1032667 74.1124822,52.0846333 C74.1231609,52.0667167 74.1352634,52.0459333 74.1473659,52.0244333 C74.1722829,51.9835833 74.2000475,51.9377167 74.228524,51.88755 C74.2520171,51.8345167 74.2790698,51.7779 74.3089701,51.7177 C74.3353109,51.6582167 74.3566682,51.59085 74.3837209,51.52205 C74.407214,51.4518167 74.4250119,51.37585 74.4477931,51.29845 C74.4627432,51.2196167 74.4791172,51.1372 74.4897959,51.0519167 C74.4940674,50.9659167 74.5111533,50.8784833 74.5061699,50.78675 C74.5118652,50.6054333 74.4826768,50.4140833 74.4406739,50.2227333 C74.3958234,50.0313833 74.3168011,49.8443333 74.2235406,49.6637333 C74.1964879,49.6207333 74.1701471,49.5763 74.1430944,49.5325833 C74.1317038,49.50965 74.1167537,49.4895833 74.1010916,49.4702333 L74.0576649,49.4114667 L74.0135263,49.3512667 C74.0007119,49.3304833 73.9772188,49.3089833 73.9608448,49.2896333 L73.8540579,49.1721 C73.7052682,49.0273333 73.5408163,48.8997667 73.3649739,48.798 C73.18486,48.7041167 72.9990508,48.6245667 72.8082582,48.5801333 C72.6196013,48.5385667 72.4309445,48.5070333 72.2486948,48.5142 C72.1582819,48.5099 72.0714286,48.5256667 71.9859991,48.5306833 C71.9005695,48.5414333 71.8179877,48.5579167 71.7403892,48.5736833 C71.6642145,48.5951833 71.5880399,48.6123833 71.5182724,48.6374667 C71.4513526,48.6647 71.383009,48.6847667 71.3232084,48.7134333 C71.2634077,48.7421 71.2085904,48.77005 71.155197,48.7937 C71.1053631,48.8223667 71.0605126,48.8496 71.0192216,48.8754 C70.9992881,48.8868667 70.9793545,48.89905 70.959421,48.9090833 C70.9423351,48.9212667 70.9252492,48.9341667 70.910299,48.9449167 C70.8796868,48.96785 70.8540579,48.9872 70.8327005,49.00225 C70.7885619,49.03235 70.7657807,49.0488333 70.7657807,49.0488333 C70.7657807,49.0488333 70.7842905,49.0273333 70.8184623,48.9872 C70.8355482,48.96785 70.8576175,48.9434833 70.8825344,48.9148167 C70.8946369,48.9004833 70.9088752,48.8847167 70.9238253,48.86895 C70.9401993,48.8539 70.9579972,48.83885 70.9765069,48.82165 C71.0135263,48.7879667 71.0555292,48.7507 71.1010916,48.7112833 C71.1502136,48.6747333 71.2028951,48.6389 71.26056,48.59805 C71.3189369,48.5579167 71.3865686,48.52495 71.4542003,48.4848167 C71.5246796,48.4468333 71.6037019,48.4196 71.6834362,48.3837667 C71.766018,48.35725 71.8528714,48.3278667 71.9447081,48.3049333 C72.0372568,48.2863 72.1340769,48.2633667 72.2344566,48.2576333 C72.4359279,48.23255 72.6516374,48.24545 72.8716184,48.282 C72.9264357,48.29275 72.981253,48.3049333 73.0367822,48.3164 C73.0908875,48.3300167 73.1449929,48.3508 73.201234,48.368 L73.2816801,48.3952333 L73.3621262,48.43035 C73.4148078,48.454 73.470337,48.4762167 73.5215947,48.5041667 C73.730897,48.6131 73.9224015,48.7607333 74.0961082,48.927 L74.2149976,49.05815 C74.2327954,49.0803667 74.2498813,49.0975667 74.2705268,49.12265 L74.3246322,49.1986167 C74.358804,49.2487833 74.4015187,49.2975167 74.4285714,49.3512667 C74.4570479,49.4028667 74.4869483,49.45375 74.5168486,49.50535 C74.5431894,49.5583833 74.5659706,49.61285 74.5908875,49.6658833 L74.6250593,49.7468667 L74.6428571,49.8027667 C74.6635026,49.78055 74.6827243,49.7583333 74.7083531,49.72895 C74.7261509,49.7096 74.7446607,49.6866667 74.766018,49.66445 C74.7887992,49.6436667 74.8137162,49.62145 74.839345,49.5985167 C74.8920266,49.5519333 74.9511153,49.4981833 75.0158994,49.443 C75.0828192,49.3921167 75.1589938,49.3398 75.23944,49.2831833 C75.3213099,49.228 75.4152824,49.1814167 75.5113906,49.1255167 C75.6089226,49.0717667 75.719981,49.0330667 75.8324632,48.9843333 C75.9477931,48.9449167 76.070954,48.9047833 76.2005221,48.8725333 C76.3293783,48.84745 76.4653536,48.8144833 76.6070242,48.8066 C76.8889416,48.7714833 77.1922164,48.7879667 77.5004746,48.8402833 C77.5766493,48.85605 77.6549597,48.8725333 77.7325581,48.8890167 C77.8087328,48.9083667 77.8849075,48.93775 77.961794,48.9614 L78.0771239,48.9993833 L78.1896061,49.0488333 C78.263645,49.0825167 78.3405316,49.1133333 78.4138586,49.1520333 C78.7071666,49.3061167 78.9762696,49.5132333 79.2204556,49.7454333 L79.3856194,49.9303333 C79.4112482,49.96115 79.4368771,49.9848 79.4632178,50.0220667 L79.5408163,50.1281333 C79.5892264,50.19765 79.6483151,50.2671667 79.6867584,50.3402667 C79.7273374,50.4133667 79.7693403,50.4864667 79.8106312,50.5574167 C79.8490745,50.6312333 79.8796868,50.7086333 79.9138586,50.7831667 L79.9629805,50.8964 L80,51.0125 C80.0256289,51.0906167 80.0541054,51.1665833 80.0719032,51.2432667 C80.0882772,51.3221 80.1053631,51.4002167 80.1210252,51.4769 C80.1366872,51.5679167 80.1473659,51.6575 80.1566208,51.7470833 C80.7382534,51.6883167 81.3576175,51.722 81.9848125,51.82735 C82.1528239,51.8631833 82.3186996,51.8997333 82.4888467,51.9362833 C82.6568581,51.9771333 82.820598,52.0402 82.9893213,52.0918 L83.2377788,52.1742167 L83.4819649,52.281 C83.644281,52.3555333 83.8108685,52.4221833 83.9689131,52.5074667 C84.6082107,52.8414333 85.192691,53.2915 85.7237779,53.79675 L86.0804461,54.1980833 C86.1366872,54.26545 86.1929283,54.31705 86.2498813,54.3973167 L86.4178927,54.6252167 C86.5232558,54.7800167 86.6528239,54.9290833 86.7332701,55.0881833 C86.823683,55.2465667 86.9148078,55.40495 87.0037969,55.5619 C87.0885145,55.7195667 87.1532985,55.8894167 87.2301851,56.04995 L87.3341243,56.2964833 L87.3690081,56.4039833 C87.3925012,56.3832 87.4159943,56.3631333 87.4409112,56.3416333 C87.5441386,56.2642333 87.6608923,56.1846833 87.7847651,56.0979667 C87.9093498,56.0126833 88.0531561,55.9410167 88.201234,55.8550167 C88.3521595,55.7733167 88.5208828,55.71455 88.6931656,55.6378667 C88.8704319,55.5798167 89.0583768,55.51675 89.2555766,55.4665833 C89.4556241,55.4286 89.6635026,55.3784333 89.8799241,55.3655333 C90.3134789,55.3125 90.7783579,55.3375833 91.2510679,55.4164167 C91.3692454,55.4422167 91.4859991,55.4680167 91.6063123,55.4938167 C91.7244898,55.5217667 91.8405316,55.5676333 91.959421,55.60275 L92.1359753,55.6615167 L92.3075463,55.7367667 C92.4221642,55.7898 92.5396298,55.8363833 92.6506882,55.8965833 C92.7083531,55.9259667 92.7624585,55.9610833 92.8179877,55.99405 C92.8251068,55.9847333 92.8308021,55.9761333 92.8379212,55.9661 C92.8735168,55.9152167 92.9105363,55.8621833 92.9532511,55.8041333 C92.9874229,55.7453667 93.0251542,55.6808667 93.0657333,55.6120667 C93.1447556,55.4766167 93.2344566,55.32755 93.3277171,55.1655833 C93.4053156,54.9928667 93.4943047,54.8129833 93.5861414,54.61805 C93.6765543,54.4238333 93.7434741,54.2023833 93.8296156,53.9802167 C93.9086379,53.7544667 93.964879,53.5072167 94.0374941,53.2578167 C94.086616,53.00125 94.1407214,52.7353667 94.1734694,52.4587333 C94.1884196,52.1785167 94.2411011,51.8954333 94.2261509,51.5987333 C94.2475083,51.0082 94.1499763,50.39115 94.0154248,49.7741 C93.8716184,49.1520333 93.6153299,48.5478833 93.3106312,47.96165 C93.2252017,47.81975 93.1404841,47.6785667 93.051495,47.53595 C93.0123398,47.46285 92.9646417,47.3969167 92.9155197,47.3345667 L92.7731372,47.1425 L92.6321785,46.9475667 C92.5894637,46.88235 92.5161367,46.8142667 92.4598956,46.7476167 L92.113906,46.3656333 C91.6319411,45.8998 91.1022781,45.4862833 90.5277646,45.1594833 C89.9475558,44.8520333 89.3452776,44.5961833 88.7301851,44.4507 C88.1143806,44.3159667 87.5028477,44.2156333 86.9148078,44.23785 C86.6200759,44.2228 86.3395823,44.2758333 86.0612245,44.2908833 C85.7857143,44.3245667 85.5201709,44.3783167 85.2667299,44.4277667 C85.0182724,44.5015833 84.7740864,44.5574833 84.5505458,44.6370333 C84.3305648,44.72375 84.108448,44.7904 83.9162316,44.8814167 C83.7225914,44.9738667 83.5424775,45.0656 83.3723303,45.1437167 C83.2107262,45.23545 83.0662079,45.32575 82.9323683,45.4045833 C82.8654485,45.444 82.8006645,45.4834167 82.7415757,45.51925 C82.681775,45.55795 82.6298054,45.5980833 82.5792596,45.6346333 C82.4788799,45.7070167 82.3941623,45.7693667 82.3251068,45.8195333 C82.1855719,45.9177167 82.1108211,45.9700333 82.1108211,45.9700333 C82.1108211,45.9700333 82.1706217,45.9005167 82.282392,45.7715167 C82.3386331,45.7077333 82.4084006,45.6274667 82.4888467,45.5350167 C82.5308495,45.48915 82.5721405,45.43755 82.6226863,45.3852333 C82.6746559,45.3379333 82.7323208,45.2877667 82.7935453,45.2333 C82.9124347,45.1258 83.0476981,45.00325 83.1971998,44.8749667 C83.3531087,44.75815 83.5282392,44.63775 83.7147603,44.5066 C83.9034172,44.3790333 84.1205505,44.2715333 84.3426673,44.1418167 C84.5683436,44.0178333 84.8239203,43.9296833 85.0823446,43.8150167 C85.3493118,43.7268667 85.6326531,43.6329833 85.9295206,43.5591667 C86.2292359,43.5004 86.5424775,43.4244333 86.8699573,43.4065167 C87.1582819,43.3714 87.459421,43.3613667 87.7655434,43.3685333 C87.7021832,43.21445 87.63028,43.0603667 87.5526815,42.9105833 C87.507831,42.8367667 87.4629805,42.7622333 87.4174181,42.6884167 C87.3960607,42.6504333 87.3718557,42.6160333 87.3462269,42.5830667 L87.2721879,42.4827333 L87.198149,42.3809667 C87.1767916,42.3472833 87.1383484,42.31145 87.108448,42.27705 L86.9283341,42.0778167 C86.676317,41.83415 86.4000949,41.6184333 86.1003797,41.4478667 C85.7971049,41.2873333 85.4831514,41.1540333 85.160655,41.07735 C84.8402943,41.0071167 84.5199336,40.9555167 84.2138111,40.9662667 C84.1255339,40.9626833 84.0408163,40.9691333 83.9560987,40.9777333 C83.9795918,41.1834167 83.9852871,41.3855167 83.961794,41.5754333 C83.9546749,41.6979833 83.9269103,41.8133667 83.9062648,41.9237333 C83.8792121,42.0348167 83.8450403,42.13945 83.8122924,42.23835 C83.7695776,42.3343833 83.7368296,42.4289833 83.6919791,42.51355 C83.6449929,42.5959667 83.6051258,42.6755167 83.5588514,42.74575 C83.5097295,42.81455 83.4670147,42.87905 83.4243,42.9363833 C83.3780256,42.993 83.3331751,43.0410167 83.293308,43.08545 C83.2740864,43.1083833 83.2562886,43.1291667 83.2377788,43.1485167 C83.2192691,43.16715 83.2000475,43.1822 83.1829616,43.1994 C83.1487897,43.2302167 83.1188894,43.2553 83.0961082,43.2760833 C83.049122,43.31765 83.0234931,43.33915 83.0234931,43.33915 C83.0234931,43.33915 83.0427148,43.3112 83.0783104,43.2610333 C83.0968201,43.2352333 83.1188894,43.2037 83.1452302,43.16715 C83.1587565,43.1470833 83.1729948,43.1277333 83.1879449,43.10695 C83.2000475,43.08545 83.2149976,43.0603667 83.2292359,43.036 C83.2584243,42.98655 83.2918842,42.9320833 83.3253441,42.8718833 C83.3531087,42.8088167 83.3865686,42.74145 83.4207404,42.6697833 C83.4542003,42.5988333 83.4791172,42.51785 83.5097295,42.4347167 C83.5389179,42.3523 83.5602753,42.2612833 83.5880399,42.1702667 C83.6051258,42.07495 83.6250593,41.9774833 83.6371618,41.875 C83.6435691,41.7725167 83.6613669,41.6686 83.6563835,41.55895 C83.6642145,41.3418 83.627907,41.1153333 83.578785,40.8867167 C83.5261035,40.6588167 83.432131,40.4359333 83.3196488,40.2202167 C83.2876127,40.1686167 83.2562886,40.1155833 83.2235406,40.0639833 C83.2093023,40.03675 83.1922164,40.0123833 83.1729948,39.98945 L83.1210252,39.9185 L83.0690555,39.8468333 C83.0541054,39.8231833 83.0263408,39.7981 83.0056953,39.7730167 L82.8789748,39.63255 C82.7017086,39.4612667 82.5066445,39.3093333 82.2944945,39.1889333 C82.1414333,39.10795 81.9826768,39.0420167 81.8217845,38.9889833 C81.6495017,39.21545 81.4615567,39.4189833 81.2565259,39.58095 C81.1419079,39.68415 81.0137636,39.7622667 80.8962981,39.84325 C80.7717133,39.9177833 80.6492644,39.9801333 80.5303749,40.0403333 C80.407926,40.08835 80.293308,40.1435333 80.1786901,40.1779333 C80.0626483,40.2094667 79.9558614,40.2460167 79.8519222,40.2668 C79.7465591,40.2847167 79.649739,40.30335 79.5607499,40.3169667 C79.4682012,40.3255667 79.3856194,40.3277167 79.3108685,40.3327333 C79.2724252,40.3348833 79.2375415,40.3370333 79.2040816,40.33775 C79.1699098,40.33775 79.1392976,40.3356 79.1101092,40.33345 C79.0894637,40.3320167 79.0773612,40.3313 79.0588514,40.3313 C79.0730897,40.3757333 79.0887518,40.4216 79.0944471,40.4660333 C79.1051258,40.5205 79.1150925,40.5764 79.1250593,40.6294333 C79.1336023,40.6839 79.135738,40.7390833 79.1407214,40.79355 L79.1464167,40.8745333 L79.144281,40.9562333 C79.1428571,41.0099833 79.144281,41.06445 79.1392976,41.1167667 C79.1321785,41.1698 79.1257712,41.2214 79.119364,41.2737167 C79.0830565,41.4786833 79.0275273,41.6736167 78.9442335,41.8441833 C78.907926,41.9323333 78.8573802,42.01045 78.8132416,42.0864167 C78.7648315,42.1602333 78.7128619,42.2290333 78.6644518,42.2935333 C78.6082107,42.3537333 78.5598007,42.4153667 78.5049834,42.4641 C78.4494542,42.51355 78.3989084,42.5615667 78.3462269,42.6017 C78.2935453,42.6389667 78.2451353,42.6762333 78.198149,42.7077667 C78.1504509,42.7364333 78.1041766,42.7608 78.0643094,42.7837333 C78.0429521,42.7944833 78.0251542,42.80595 78.0073564,42.81455 C77.9881348,42.8238667 77.970337,42.8303167 77.9532511,42.8382 C77.921215,42.8511 77.8920266,42.8625667 77.8699573,42.8718833 C77.823683,42.8898 77.8001898,42.8998333 77.8001898,42.8998333 C77.8001898,42.8998333 77.8208353,42.8840667 77.8607024,42.8561167 C77.8813479,42.8425 77.9041291,42.8238667 77.9340294,42.8045167 C77.9489796,42.79305 77.9639298,42.7830167 77.9803037,42.77155 C77.9952539,42.7579333 78.0116279,42.7443167 78.0287138,42.7299833 C78.0628856,42.7006 78.1013289,42.66835 78.1419079,42.6346667 C78.1803512,42.5945333 78.2209302,42.5536833 78.2643569,42.5106833 C78.3070717,42.4655333 78.3462269,42.4125 78.3910774,42.3601833 C78.4337921,42.3064333 78.4715235,42.2455167 78.5156621,42.1846 C78.5526815,42.1193833 78.5925486,42.0527333 78.6274324,41.98035 C78.6587565,41.9058167 78.6993355,41.83415 78.7242525,41.7517333 C78.7847651,41.59335 78.8168011,41.41705 78.8388704,41.23645 C78.858804,41.0551333 78.8459896,40.8659333 78.8189369,40.6781667 C78.8082582,40.6315833 78.7990033,40.5842833 78.7883246,40.5384167 C78.7847651,40.5147667 78.7776459,40.4918333 78.7705268,40.4696167 L78.7505933,40.4036833 L78.7306597,40.33775 C78.7249644,40.3155333 78.7107262,40.29045 78.7014713,40.2668 L78.6445183,40.1299167 C78.5576649,39.9572 78.4537257,39.7952333 78.328429,39.6504667 C78.1995729,39.51215 78.0614618,39.3845833 77.9069767,39.2871167 C77.7532036,39.1918 77.5972947,39.1050833 77.4356906,39.0549167 C77.3573802,39.0226667 77.2762221,39.0104833 77.1993355,38.98755 C77.1217371,38.97035 77.0441386,38.9596 76.9708116,38.94885 C76.8953488,38.9452667 76.8241576,38.9366667 76.7565259,38.9366667 C76.6874703,38.9395333 76.6226863,38.9366667 76.5614618,38.9424 C76.4995254,38.9495667 76.4425724,38.9567333 76.388467,38.9624667 C76.3364974,38.9710667 76.2880873,38.9818167 76.2446607,38.9904167 C76.2233033,38.9947167 76.201234,38.9990167 76.1820123,39.0026 C76.1620788,39.0083333 76.1435691,39.0140667 76.1271951,39.0183667 C76.0923113,39.0291167 76.0638348,39.0377167 76.0417655,39.0448833 C75.9926436,39.0577833 75.9684385,39.06495 75.9684385,39.06495 C75.9684385,39.06495 75.9912197,39.05205 76.0332226,39.0276833 C76.05458,39.0155 76.0816327,39.0011667 76.111533,38.98325 C76.127907,38.97465 76.1435691,38.9653333 76.1620788,38.9560167 C76.1805885,38.9481333 76.201234,38.9395333 76.2233033,38.9302167 C76.266018,38.9130167 76.3137162,38.8922333 76.3663977,38.8721667 C76.4205031,38.8556833 76.4788799,38.8392 76.5415282,38.8212833 C76.6048885,38.8055167 76.6746559,38.7969167 76.7458472,38.7833 C76.8191742,38.7704 76.8974846,38.7718333 76.9772188,38.7653833 C77.0598007,38.7661 77.1452302,38.7689667 77.2320835,38.77685 C77.3196488,38.7890333 77.4114855,38.7997833 77.5011865,38.8255833 C77.6855719,38.8657167 77.872093,38.9438333 78.0536308,39.04345 C78.0991932,39.0706833 78.1433318,39.0979167 78.1896061,39.1258667 C78.2323208,39.1545333 78.2736118,39.18965 78.3163265,39.2226167 L78.3796868,39.27135 L78.4387755,39.3258167 C78.4786426,39.3638 78.5199336,39.40035 78.556953,39.4412 C78.7071666,39.6017333 78.8310394,39.7909333 78.9328429,39.9908833 L78.9962031,40.1435333 C79.005458,40.1679 79.0161367,40.1879667 79.0246796,40.21735 L79.0439013,40.2804167 C79.0652587,40.27755 79.0802088,40.2754 79.1051258,40.2711 C79.1343142,40.2660833 79.1642145,40.26035 79.1955387,40.2546167 C79.2275748,40.24745 79.2603227,40.23885 79.2959184,40.2288167 C79.3671096,40.2109 79.44542,40.19155 79.5294257,40.1686167 C79.6112957,40.1378 79.7002848,40.1077 79.7942572,40.0740167 C79.8882297,40.0403333 79.983626,39.9887333 80.0847176,39.9443 C80.1843854,39.8955667 80.2840532,39.8325 80.3901281,39.77445 C80.4912197,39.70565 80.595159,39.6361333 80.6983863,39.5558667 C80.7959184,39.46915 80.9055529,39.3924667 80.9973897,39.2899833 C81.1974371,39.1015 81.3675842,38.8642833 81.5263408,38.6163167 C81.6829616,38.3633333 81.7975795,38.0781 81.8879924,37.7828333 C81.9057902,37.7083 81.9250119,37.6323333 81.9420978,37.5570833 C81.9549122,37.5191 81.9598956,37.4818333 81.9634551,37.4431333 L81.9798291,37.3334833 L81.9962031,37.2224 C82.0040342,37.1865667 82.0033223,37.1399833 82.0061699,37.0991333 L82.0161367,36.8576167 C82.0104414,36.5437167 81.9705743,36.2298167 81.8894162,35.9316833 C81.7982914,35.63785 81.6829616,35.3519 81.5270527,35.0989167 C81.4579972,34.9899833 81.3946369,34.89825 81.3312767,34.81225 C81.2344566,34.8860667 81.1355007,34.9534333 81.0401044,35.01865 C80.9012814,35.1017833 80.7631704,35.1720167 80.6314665,35.2386667 C80.4933555,35.2931333 80.3652112,35.3547667 80.2370669,35.3934667 C80.1067869,35.4285833 79.9871856,35.4687167 79.8704319,35.4923667 C79.7536782,35.51315 79.6440437,35.5332167 79.543664,35.5489833 C79.4418605,35.5583 79.347888,35.56045 79.2631704,35.5661833 C79.2211675,35.56905 79.1827243,35.5712 79.144281,35.57335 C79.1065496,35.57335 79.0730897,35.56905 79.0403417,35.5676167 C78.9734219,35.5633167 78.9200285,35.56045 78.8744661,35.5583 C78.785477,35.5511333 78.7392027,35.54755 78.7392027,35.54755 C78.7392027,35.54755 78.7847651,35.53895 78.8723303,35.5239 C78.9171808,35.5167333 78.9698624,35.5074167 79.0339345,35.4981 C79.0652587,35.4923667 79.1001424,35.4859167 79.135738,35.4794667 C79.1706217,35.4708667 79.2076412,35.46155 79.2482202,35.4515167 C79.3272425,35.4307333 79.4148078,35.4085167 79.5094922,35.3834333 C79.6013289,35.3483167 79.7009967,35.3146333 79.8070717,35.2780833 C79.9110109,35.2386667 80.0177978,35.1813333 80.1309919,35.1318833 C80.2427622,35.0767 80.3559563,35.0064667 80.4741338,34.9419667 C80.586616,34.8645667 80.7047935,34.7857333 80.8186996,34.6954333 C80.9105363,34.6130167 81.010916,34.5363333 81.1027527,34.4453167 L81.3305648,34.21455 C81.4814903,34.0411167 81.6181775,33.8461833 81.7470337,33.6433667 C81.9228761,33.35885 82.0495966,33.0399333 82.1528239,32.70955 C82.1720456,32.6257 82.1934029,32.54185 82.2133365,32.45585 C82.2261509,32.4135667 82.2318462,32.372 82.2375415,32.3304333 L82.2553393,32.2057333 L82.2731372,32.0810333 C82.282392,32.0409 82.2809682,31.9885833 82.2838159,31.9427167 L82.2966303,31.6739667 C82.2895112,31.32065 82.2453726,30.9694833 82.1535358,30.6348 C82.0510204,30.3051333 81.9228761,29.9862167 81.7470337,29.7024167 C81.606075,29.4788167 81.4551495,29.2666833 81.2857143,29.0825 C81.2793071,29.1376833 81.2728999,29.19215 81.2664926,29.2451833 C81.2294732,29.4064333 81.206692,29.5626667 81.1618415,29.7067167 C81.1134314,29.8486167 81.076412,29.9840667 81.0251542,30.1059 C80.9710489,30.2291667 80.921215,30.3416833 80.8728049,30.44345 C80.8179877,30.5437833 80.7631704,30.63265 80.7140484,30.7136333 C80.6912672,30.7544833 80.668486,30.79175 80.6471286,30.8283 C80.6229236,30.8627 80.5987186,30.8920833 80.5773612,30.9214667 C80.5332226,30.9795167 80.496915,31.02825 80.4655909,31.0676667 C80.4050783,31.1457833 80.3723303,31.18735 80.3723303,31.18735 C80.3723303,31.18735 80.3929758,31.1393333 80.4335548,31.0483167 C80.4542003,31.0031667 80.4791172,30.9479833 80.5090176,30.8827667 C80.5239677,30.8505167 80.5396298,30.8154 80.5574276,30.77885 C80.5702421,30.74015 80.5837684,30.6993 80.6001424,30.6563 C80.6307546,30.5695833 80.6656383,30.4757 80.7019459,30.3725 C80.725439,30.2664333 80.7567632,30.1532 80.7880873,30.0320833 C80.8186996,29.9109667 80.8322259,29.77695 80.8585667,29.6415 C80.8770764,29.5039 80.8841955,29.35555 80.8977219,29.2057667 C80.89701,29.0538333 80.8991457,28.8968833 80.8870432,28.7349167 C80.8663977,28.57295 80.8635501,28.4066833 80.8243949,28.2397 C80.7710014,27.9007167 80.6478405,27.5595833 80.5033223,27.2220333 C80.3538206,26.8837667 80.1423825,26.567 79.9038918,26.2667167 C79.8398196,26.1964833 79.7764594,26.1248167 79.7095396,26.0538667 C79.6789274,26.01445 79.6454675,25.9836333 79.6112957,25.9528167 L79.5080683,25.8589333 L79.4062648,25.7643333 C79.3756526,25.7320833 79.3258187,25.70055 79.2859516,25.6690167 L79.0481728,25.48985 C78.7221168,25.2784333 78.3739915,25.0999833 78.0123398,24.9774333 C77.6471286,24.86635 77.2762221,24.7868 76.9095871,24.77175 C76.543664,24.76315 76.1834362,24.7746167 75.850261,24.8513 C75.6815377,24.8756667 75.5263408,24.9365833 75.3704319,24.976 C75.2173707,25.0261667 75.0714286,25.0849333 74.9326056,25.1422667 C74.798766,25.2117833 74.6649264,25.2712667 74.546037,25.3415 C74.4292833,25.4153167 74.3111058,25.4783833 74.21215,25.55005 C74.1117703,25.6253 74.0177978,25.6976833 73.9302326,25.76075 C73.8490745,25.8309833 73.7750356,25.8976333 73.7081158,25.9578333 C73.6746559,25.9879333 73.6404841,26.0173167 73.6105838,26.0438333 C73.5828192,26.0732167 73.5564784,26.1011667 73.5308495,26.1276833 C73.4817276,26.1807167 73.4404366,26.2244333 73.4062648,26.2609833 C73.3379212,26.33265 73.3009018,26.37135 73.3009018,26.37135 C73.3009018,26.37135 73.3265306,26.3254833 73.3756526,26.2394833 C73.4027053,26.1957667 73.4333175,26.14345 73.4682012,26.0818167 C73.4881348,26.051 73.5052207,26.0158833 73.5287138,25.9822 C73.5536308,25.9485167 73.5806834,25.9141167 73.6098719,25.8761333 C73.665401,25.8008833 73.7294732,25.7163167 73.7999525,25.6267333 C73.877551,25.5428833 73.9644044,25.4547333 74.0562411,25.3594167 C74.1487897,25.2655333 74.261272,25.18025 74.3737542,25.0820667 C74.4897959,24.9860333 74.6250593,24.9079167 74.7596108,24.8133167 C74.9027053,24.7337667 75.0529188,24.6484833 75.2152349,24.5732333 C75.3789748,24.5073 75.5498339,24.4291833 75.7342193,24.3826 C75.8217845,24.35465 75.9114855,24.3302833 76.0026103,24.3080667 C76.0937352,24.2349667 76.1834362,24.1547 76.2788325,24.0758667 C76.3913147,23.9612 76.5094922,23.8458167 76.6198386,23.7168167 C76.7237779,23.5820833 76.8462269,23.45595 76.9409112,23.3004333 C77.1516374,23.0080333 77.3111058,22.6618833 77.4542003,22.3028333 C77.5937352,21.9387667 77.6699098,21.5438833 77.7133365,21.1411167 C77.717608,21.0415 77.7247271,20.9397333 77.7282867,20.8379667 C77.7332701,20.7849333 77.7318462,20.7369167 77.7282867,20.6874667 L77.7204556,20.54055 L77.7147603,20.3929167 C77.7161841,20.3463333 77.7026578,20.2861333 77.6962506,20.2323833 L77.6528239,19.9199167 C77.6129568,19.7378833 77.562411,19.5587167 77.5047461,19.3824167 C77.4876602,19.3301 77.4691505,19.2792167 77.4492169,19.2269 C77.4143332,19.1287167 77.3723303,19.0326833 77.3303275,18.93665 C77.2911723,18.8485 77.2513052,18.76035 77.2064547,18.67435 C77.0284765,18.3525667 76.829141,18.0451167 76.5885145,17.7828167 C76.323683,17.5011667 76.0481728,17.2395833 75.7427622,17.04895 C75.5989559,16.9393 75.4380636,16.86835 75.2928334,16.7809167 C75.141196,16.7028 74.9881348,16.6375833 74.8421927,16.5766667 C74.8258187,16.5709333 74.8101566,16.5666333 74.7944945,16.5609 C75.4444708,15.7711333 76.1321785,15.00215 76.8668723,14.26255 C89.6428571,1.40125 110.428571,1.40125 123.201709,14.2611167 C135.97627,27.1202667 135.978405,48.0462167 123.201709,60.9075167 L123.201709,60.9075167 Z" id="Fill-15"></path>
                </g>
            </g>
        </g>
    </g>
</svg>