<?xml version="1.0" encoding="UTF-8" standalone="no"?>
<svg width="25px" height="25px" viewBox="0 0 25 25" version="1.1" xmlns="http://www.w3.org/2000/svg" xmlns:xlink="http://www.w3.org/1999/xlink" xmlns:sketch="http://www.bohemiancoding.com/sketch/ns">
    <!-- Generator: Sketch 3.2.1 (9977) - http://www.bohemiancoding.com/sketch -->
    <title>edition</title>
    <desc>Created with Sketch.</desc>
    <defs></defs>
    <g id="Page-1" stroke="none" stroke-width="1" fill="none" fill-rule="evenodd" sketch:type="MSPage">
        <g id="Home---Desktop-HD-2" sketch:type="MSArtboardGroup" transform="translate(-685.000000, -1937.000000)" fill="#FFFFFF">
            <g id="Victoire/Actions" sketch:type="MSLayerGroup" transform="translate(0.000000, 1924.000000)">
                <g id="*actions-2" transform="translate(625.000000, 0.000000)" sketch:type="MSShapeGroup">
                    <path d="M61.268,34.4285175 L63.571,36.7315175 L68.211,35.0835175 L62.916,29.7875175 L61.268,34.4285175 Z M60,37.9995175 L62.692,37.0185175 L60.981,35.3075175 L60,37.9995175 Z M84.483,16.5905175 L81.399,13.5075175 C80.718,12.8265175 79.609,12.8315175 78.922,13.5185175 L77.017,15.4235175 L82.567,20.9735175 L84.472,19.0685175 C85.159,18.3815175 85.164,17.2725175 84.483,16.5905175 Z M63.346,29.0595175 L68.939,34.6525175 L82.012,21.5815175 L76.418,15.9885175 L63.346,29.0595175 Z M79.472,21.5925175 L68.951,32.1135175 L68.337,31.5005175 L78.859,20.9795175 L79.472,21.5925175 L79.472,21.5925175 Z M78.246,20.3665175 L67.725,30.8875175 L67.112,30.2745175 L77.633,19.7535175 L78.246,20.3665175 L78.246,20.3665175 Z M66.499,29.6615175 L65.886,29.0485175 L76.407,18.5275175 L77.02,19.1405175 L66.499,29.6615175 L66.499,29.6615175 Z" id="edition"></path>
                </g>
            </g>
        </g>
    </g>
</svg>