<?xml version="1.0" encoding="UTF-8" standalone="no"?>
<svg width="21px" height="23px" viewBox="0 0 21 23" version="1.1" xmlns="http://www.w3.org/2000/svg" xmlns:xlink="http://www.w3.org/1999/xlink" xmlns:sketch="http://www.bohemiancoding.com/sketch/ns">
    <!-- Generator: Sketch 3.2.1 (9977) - http://www.bohemiancoding.com/sketch -->
    <title>design</title>
    <desc>Created with Sketch.</desc>
    <defs></defs>
    <g id="Page-1" stroke="none" stroke-width="1" fill="none" fill-rule="evenodd" sketch:type="MSPage">
        <g id="Home---Desktop-HD-2" sketch:type="MSArtboardGroup" transform="translate(-779.000000, -1938.000000)" fill="#FFFFFF">
            <g id="Victoire/Actions" sketch:type="MSLayerGroup" transform="translate(0.000000, 1924.000000)">
                <g id="*actions-2" transform="translate(625.000000, 0.000000)" sketch:type="MSShapeGroup">
                    <path d="M174.046,22.625 L164.501,22.625 L164.501,24.541 L162.592,24.541 L162.592,21.666 L174.046,21.666 L174.046,15.916 L173.092,15.916 L173.092,18.792 C173.092,19.321 172.664,19.75 172.137,19.75 L154.955,19.75 C154.428,19.75 154,19.321 154,18.792 L154,14.958 C154,14.429 154.428,14 154.955,14 L172.137,14 C172.664,14 173.092,14.429 173.092,14.958 L175,14.958 L175,22.625 L174.046,22.625 L174.046,22.625 Z M155.91,15.916 L171.183,15.916 L171.183,14.958 L155.91,14.958 L155.91,15.916 Z M165.455,35.083 C165.455,36.142 164.6,37 163.546,37 C162.491,37 161.637,36.142 161.637,35.083 L161.637,25.499 L165.455,25.499 L165.455,35.083 L165.455,35.083 Z M163.546,33.726 C163.019,33.726 162.592,34.155 162.592,34.684 C162.592,35.213 163.019,35.642 163.546,35.642 C164.073,35.642 164.501,35.213 164.501,34.684 C164.501,34.155 164.073,33.726 163.546,33.726 L163.546,33.726 Z" id="design"></path>
                </g>
            </g>
        </g>
    </g>
</svg>