<?xml version="1.0" encoding="UTF-8" standalone="no"?>
<svg width="31px" height="17px" viewBox="0 0 31 17" version="1.1" xmlns="http://www.w3.org/2000/svg" xmlns:xlink="http://www.w3.org/1999/xlink" xmlns:sketch="http://www.bohemiancoding.com/sketch/ns">
    <!-- Generator: Sketch 3.2.1 (9977) - http://www.bohemiancoding.com/sketch -->
    <title>lunettes</title>
    <desc>Created with Sketch.</desc>
    <defs></defs>
    <g id="Page-1" stroke="none" stroke-width="1" fill="none" fill-rule="evenodd" sketch:type="MSPage">
        <g id="Home---Desktop-HD-2" sketch:type="MSArtboardGroup" transform="translate(-636.000000, -1941.000000)" fill="#FFFFFF">
            <g id="Victoire/Actions" sketch:type="MSLayerGroup" transform="translate(0.000000, 1924.000000)">
                <g id="*actions-2" transform="translate(625.000000, 0.000000)" sketch:type="MSShapeGroup">
                    <path d="M11,22.8581118 L11,31.6501118 C11,32.3981118 11.617,33.0041118 12.377,33.0041118 L23.457,33.0041118 C24.492,33.0041118 25.437,29.8471118 26.499,29.8471118 C27.422,29.8471118 28.116,33.0041118 29.026,33.0041118 L40.622,33.0041118 C41.383,33.0041118 42,32.3981118 42,31.6501118 L42,22.8581118 L11,22.8581118 L11,22.8581118 Z M23.399,28.9451118 C23.399,30.0661118 22.475,30.9741118 21.333,30.9741118 L15.133,30.9741118 C13.992,30.9741118 13.066,30.0661118 13.066,28.9451118 L13.066,26.9161118 C13.066,25.7961118 13.992,24.8871118 15.133,24.8871118 L21.333,24.8871118 C22.475,24.8871118 23.399,25.7961118 23.399,26.9161118 L23.399,28.9451118 L23.399,28.9451118 Z M39.933,28.9451118 C39.933,30.0661118 39.008,30.9741118 37.866,30.9741118 L31.667,30.9741118 C30.525,30.9741118 29.6,30.0661118 29.6,28.9451118 L29.6,26.9161118 C29.6,25.7961118 30.525,24.8871118 31.667,24.8871118 L37.866,24.8871118 C39.008,24.8871118 39.933,25.7961118 39.933,26.9161118 L39.933,28.9451118 Z M20.25,19.4761118 C21.432,19.4761118 21.727,20.0561118 22.514,19.9601118 C23.301,19.8631118 22.612,18.5101118 21.923,17.5441118 C21.235,16.5781118 19.66,17.0611118 18.479,17.7371118 C17.298,18.4141118 11.024,22.1581118 11.024,22.1581118 L16.511,22.1581118 C16.511,22.1581118 19.07,19.4761118 20.25,19.4761118 Z M30.485,19.9601118 C31.273,20.0561118 31.568,19.4761118 32.749,19.4761118 C33.93,19.4761118 36.489,22.1581118 36.489,22.1581118 L41.975,22.1581118 C41.975,22.1581118 35.701,18.4141118 34.521,17.7371118 C33.339,17.0611118 31.765,16.5781118 31.076,17.5441118 C30.387,18.5101118 29.698,19.8631118 30.485,19.9601118 Z" id="lunettes"></path>
                </g>
            </g>
        </g>
    </g>
</svg>