<?xml version="1.0" encoding="iso-8859-1"?>
<!-- Generator: Adobe Illustrator 17.0.0, SVG Export Plug-In . SVG Version: 6.00 Build 0)  -->
<!DOCTYPE svg PUBLIC "-//W3C//DTD SVG 1.1//EN" "http://www.w3.org/Graphics/SVG/1.1/DTD/svg11.dtd">
<svg version="1.1" id="Capa_1" xmlns="http://www.w3.org/2000/svg" xmlns:xlink="http://www.w3.org/1999/xlink" x="0px" y="0px"
	 width="30px" height="30px" viewBox="0 0 64 64" style="enable-background:new 0 0 64 64; fill:white" xml:space="preserve">
<g>
	<path d="M53.367,8.427c0-1.105-0.895-2-2-2H10.804c-0.414,0-0.799,0.126-1.118,0.342c-0.213,0.144-0.396,0.327-0.54,0.54
		C8.93,7.628,8.804,8.013,8.804,8.427v2.686v6.536c0,0.414,0.126,0.799,0.342,1.118c0.144,0.213,0.327,0.396,0.54,0.54
		c0.319,0.216,0.704,0.342,1.118,0.342h40.563c1.105,0,2-0.895,2-2v-3.112h1.995v6.643l-23.891,4.362
		c-0.713,0.13-1.23,0.751-1.23,1.476v6.426h-1.524c-1.105,0-2,0.895-2,2v22.664c0,1.105,0.895,2,2,2h6.049c1.105,0,2-0.895,2-2
		V35.445c0-1.105-0.895-2-2-2h-1.524V28.27l23.891-4.362c0.713-0.13,1.23-0.751,1.23-1.476v-9.394c0-0.828-0.672-1.5-1.5-1.5h-3.495
		V8.462V8.427z M35.167,12.833c1.935,0,1.935,3,0,3C33.232,15.833,33.232,12.833,35.167,12.833z M50.662,8.298
		c-0.19,0.526-0.632,0.969-1.329,1.035c-0.596,0.053-1.177,0.17-1.75,0.317c-0.176,1.399-0.577,2.761-0.583,4.183
		c-0.005,1.396-2.158,2.176-2.795,0.757c-1.463-3.262-2.749-3.989-6.151-3.952c-2.093,0.022-3.965-0.331-5.871-1.053
		c-0.872,0.112-1.75,0.199-2.585,0.173c-0.602,2.043,0.345,3.748-0.484,5.807c-0.455,1.13-2.047,1.597-2.742,0.358
		c-0.888-1.584-0.941-3.089-1.44-4.018c-0.092,0.662-0.568,1.261-1.432,1.261c-1.238,0-1.68-1.227-1.333-2.112
		c-0.3,0.048-0.621,0.111-0.988,0.203c-1.808,0.452-3.336-0.001-4.846-0.398v2.798c0,0.818-0.682,1.5-1.5,1.5s-1.5-0.682-1.5-1.5
		V10.5c0-0.026,0.007-0.051,0.008-0.077c-0.86,0.044-1.763,0.283-2.751,0.872c-0.088,0.052-0.185,0.092-0.286,0.123V8.427
		c0-0.276,0.224-0.5,0.5-0.5h40.563c0.249,0,0.447,0.186,0.485,0.425C51.456,8.331,51.06,8.311,50.662,8.298z"/>
</g>
</svg>
