<?xml version="1.0" encoding="UTF-8" standalone="no"?>
<svg width="106px" height="22px" viewBox="0 0 106 22" version="1.1" xmlns="http://www.w3.org/2000/svg" xmlns:xlink="http://www.w3.org/1999/xlink" xmlns:sketch="http://www.bohemiancoding.com/sketch/ns">
    <!-- Generator: Sketch 3.2.1 (9977) - http://www.bohemiancoding.com/sketch -->
    <title>vic-logo-menu-main-label</title>
    <desc>Created with Sketch.</desc>
    <defs></defs>
    <g id="Page-1" stroke="none" stroke-width="1" fill="none" fill-rule="evenodd" sketch:type="MSPage">
        <g id="Home---Desktop-HD-2" sketch:type="MSArtboardGroup" transform="translate(-96.000000, -7.000000)" fill="#FFFFFF">
            <g id="Victoire/Header" sketch:type="MSLayerGroup">
                <g id="Logo" transform="translate(61.000000, 5.000000)" sketch:type="MSShapeGroup">
                    <g id="Victoire-logo">
                        <g id="vic-logo-menu-main-label" transform="translate(35.000000, 2.000000)">
                            <path d="M20.3523715,6.93945714 L25.1082213,6.93945714 L25.1082213,21.2618667 L20.3523715,21.2618667 L20.3523715,6.93945714 Z" id="Fill-3"></path>
                            <path d="M40.0624901,19.8900286 C39.4432806,20.2744857 38.7383004,20.595419 37.938419,20.862219 C37.141581,21.1273619 36.3281423,21.2618667 35.4972727,21.2618667 C34.1340711,21.2618667 32.947668,21.0704667 31.9375099,20.6871143 C30.9256917,20.3043143 30.0798814,19.7908762 29.3989723,19.1415524 C28.7169565,18.495819 28.2070356,17.7396095 27.8675494,16.8798286 C27.5269565,16.0189429 27.3567984,15.1111048 27.3567984,14.1541048 C27.3567984,13.1998667 27.5269565,12.2796 27.8675494,11.3974476 C28.2070356,10.5169524 28.7169565,9.745 29.3989723,9.08821905 C30.0798814,8.42867619 30.9256917,7.90225714 31.9375099,7.50951429 C32.947668,7.11677143 34.1340711,6.92122857 35.4972727,6.92122857 C36.3281423,6.92122857 37.141581,7.05269524 37.938419,7.3178381 C38.7383004,7.58325714 39.6632411,8.04670476 40.2788538,8.42867619 L37.7049012,11.0002857 C37.0939921,10.825181 37.7049012,11.0002857 37.2049407,10.8561143 C36.7055336,10.7119429 36.1668379,10.6509048 35.593004,10.6509048 C34.6337549,10.6509048 33.8039921,10.9190857 33.102332,11.4606952 C32.4012253,12.0028571 32.0490119,12.8805905 32.0490119,14.0900286 C32.0490119,15.1950667 32.4045455,16.0446286 33.1197628,16.6389905 C33.8311067,17.2347333 34.719249,17.5324667 35.7836364,17.5324667 C36.889249,17.5324667 37.9118577,17.2687048 38.8495257,16.7356571 L40.0624901,19.8900286" id="Fill-4"></path>
                            <path d="M48.8293676,10.6660952 L48.8293676,15.8427333 C48.8293676,16.4376476 48.9347826,16.8511048 49.1497628,17.0853143 C49.3600395,17.3203524 49.6472332,17.4374571 50.0091304,17.4374571 C50.1776285,17.4374571 50.3663241,17.4148095 50.5694071,17.3728286 C50.7711067,17.330019 50.987747,17.2769905 51.2226482,17.2131905 L52.30917,20.7514667 C51.6918972,20.899781 51.0892885,21.0218571 50.5063241,21.1179714 C49.9189328,21.2143619 49.3298814,21.2618667 48.7333597,21.2618667 C48.0513439,21.2618667 47.431581,21.1751429 46.8660474,21.0061143 C46.3018972,20.8365333 45.8110672,20.543219 45.3963241,20.1289333 C44.9826877,19.7146476 44.6633992,19.1465238 44.4376285,18.4248381 C44.2157312,17.7026 44.1047826,16.7997333 44.1047826,15.7159619 L44.1047826,10.6660952 L41.0687747,10.6660952 L41.0687747,9.99854286 L44.1047826,6.93945714 L44.1047826,5.35246667 L48.8293676,0.614695238 L48.8293676,6.93945714 L52.5014625,6.93945714 L52.5014625,10.6660952 L48.8293676,10.6660952" id="Fill-5"></path>
                            <path d="M69.1628458,14.0900286 C69.1628458,15.0685714 68.9990514,15.9869048 68.669249,16.8472381 C68.3388933,17.7067429 67.856087,18.4659905 67.2177866,19.1260857 C66.5803162,19.7856286 65.7973123,20.3043143 64.8701581,20.6871143 C63.9441107,21.0704667 62.8966008,21.2618667 61.7259684,21.2618667 C60.556166,21.2618667 59.5086561,21.0704667 58.5817787,20.6871143 C57.6549012,20.3043143 56.8735573,19.7856286 56.2349802,19.1260857 C55.5955731,18.4659905 55.1069565,17.7067429 54.7674704,16.8472381 C54.4249407,15.9869048 54.2558893,15.0685714 54.2558893,14.0900286 C54.2558893,13.1131429 54.4249407,12.1895619 54.7674704,11.3184571 C55.1069565,10.4468 55.5955731,9.68755238 56.2349802,9.03767619 C56.8735573,8.39194286 57.6549012,7.8774 58.5817787,7.49404762 C59.5086561,7.11207619 60.556166,6.92122857 61.7259684,6.92122857 C62.8966008,6.92122857 63.9441107,7.11207619 64.8701581,7.49404762 C65.7973123,7.8774 66.5803162,8.39194286 67.2177866,9.03767619 C67.856087,9.68755238 68.3388933,10.4468 68.669249,11.3184571 C68.9990514,12.1895619 69.1628458,13.1131429 69.1628458,14.0900286 L69.1628458,14.0900286 Z M64.4731225,14.0900286 C64.4731225,12.9217429 64.2304743,12.0183238 63.7534783,11.381981 C63.2734387,10.7431524 62.5994466,10.4252571 61.7259684,10.4252571 C60.8328458,10.4252571 60.1466798,10.7431524 59.666087,11.381981 C59.1882609,12.0183238 58.9500395,12.9217429 58.9500395,14.0900286 C58.9500395,15.2588667 59.1882609,16.1620095 59.666087,16.7997333 C60.1466798,17.4374571 60.8328458,17.756181 61.7259684,17.756181 C62.5994466,17.756181 63.2734387,17.4374571 63.7534783,16.7997333 C64.2304743,16.1620095 64.4731225,15.2588667 64.4731225,14.0900286 L64.4731225,14.0900286 Z" id="Fill-6"></path>
                            <path d="M72.1648221,6.93945714 L76.9231621,6.93945714 L76.9231621,21.2618667 L72.1648221,21.2618667 L72.1648221,6.93945714 Z" id="Fill-7"></path>
                            <path d="M90.2989723,11.6380095 C89.1499209,11.4032476 88.1527668,11.3184571 87.3124901,11.381981 C86.4724901,11.4455048 85.8601976,11.7432381 85.4797628,12.2738 L85.4797628,21.2618667 L80.7189328,21.2618667 L80.7189328,6.93945714 L85.3494466,6.93945714 L85.3494466,9.40639048 C85.6681818,8.98133333 85.9891304,8.614 86.309249,8.30521905 C86.6254941,7.9992 86.9771542,7.73875238 87.3631225,7.52580952 C87.7460474,7.31424762 88.1737945,7.15958095 88.6549407,7.06484762 C89.1338735,6.96845714 89.6808696,6.92122857 90.2989723,6.92122857 L90.2989723,11.6380095" id="Fill-8"></path>
                            <path d="M105.655257,13.5810095 C105.655257,13.792019 105.647787,14.1115714 105.638379,14.5366286 C105.627312,14.9603048 105.601581,15.2920095 105.558142,15.5253905 L96.4918972,15.5253905 C96.6410277,16.3122571 96.9810672,16.8798286 97.5125692,17.228381 C98.0440711,17.5788667 98.8658103,17.756181 99.9714229,17.756181 C100.547194,17.756181 101.204585,17.6860286 101.952451,17.5484857 C102.693676,17.4103905 103.440711,17.2347333 104.185534,17.0242762 L104.633202,20.4976476 C103.739802,20.7299238 102.84419,20.9158 101.952451,21.0527905 C101.056008,21.1889524 100.237866,21.2618667 99.4916601,21.2618667 C98.1306719,21.2618667 96.9664032,21.0704667 95.997747,20.6871143 C95.0274308,20.3043143 94.2372332,19.7908762 93.6185771,19.1415524 C93.0013043,18.495819 92.5433992,17.7396095 92.244585,16.8798286 C91.9485375,16.0189429 91.7988538,15.1111048 91.7988538,14.1541048 C91.7988538,13.2404667 91.9518577,12.347819 92.2611858,11.4767143 C92.5705138,10.6072667 93.0320158,9.83586667 93.6503953,9.16748571 C94.2679447,8.49689524 95.0274308,7.95666667 95.9341107,7.54238095 C96.8371937,7.1264381 97.8847036,6.92122857 99.0771937,6.92122857 C100.163992,6.92122857 101.121304,7.09467619 101.952451,7.44571429 C102.781107,7.7962 103.466443,8.27428571 104.011502,8.87997143 C104.554348,9.48372381 104.962174,10.1921524 105.239684,10.9983524 C105.51415,11.8064857 105.655257,12.6673714 105.655257,13.5810095 L105.655257,13.5810095 Z M101.535771,12.9424571 C101.450553,12.1149905 101.184941,11.4985333 100.739209,11.095019 C100.292095,10.6904 99.7381818,10.4893333 99.0771937,10.4893333 C98.3755336,10.4893333 97.7986561,10.6970286 97.3537549,11.1104857 C96.906917,11.5247714 96.6296838,12.1368095 96.5237154,12.9424571 L101.535771,12.9424571 L101.535771,12.9424571 Z" id="Fill-9"></path>
                            <path d="M10.233083,21.2618667 L0.155573123,6.92122857 L5.77023715,6.92122857 L12.0887747,16.0438 L12.1269565,16.0438 L12.1269565,6.93945714 L16.8794862,6.93945714 L16.8794862,21.2618667 L10.233083,21.2618667" id="Fill-10"></path>
                        </g>
                    </g>
                </g>
            </g>
        </g>
    </g>
</svg>