<?xml version="1.0" encoding="UTF-8" standalone="no"?>
<svg width="30px" height="30px" viewBox="0 0 30 30" version="1.1" xmlns="http://www.w3.org/2000/svg" xmlns:xlink="http://www.w3.org/1999/xlink" xmlns:sketch="http://www.bohemiancoding.com/sketch/ns">
    <!-- Generator: Sketch 3.2.1 (9977) - http://www.bohemiancoding.com/sketch -->
    <title>vic-logo-menu-main-picto</title>
    <desc>Created with Sketch.</desc>
    <defs></defs>
    <g id="Page-1" stroke="none" stroke-width="1" fill="none" fill-rule="evenodd" sketch:type="MSPage">
        <g id="Home---Desktop-HD-2" sketch:type="MSArtboardGroup" transform="translate(-61.000000, -5.000000)" fill="#FFFFFF">
            <g id="Victoire/Header" sketch:type="MSLayerGroup">
                <g id="Logo" transform="translate(61.000000, 5.000000)" sketch:type="MSShapeGroup">
                    <g id="Victoire-logo">
                        <g id="vic-logo-menu-main-picto">
                            <path d="M5.17814229,25.5048571 C-0.441225296,19.7022857 -0.441225296,10.2622857 5.17814229,4.45742857 C10.7961265,-1.34514286 19.9390119,-1.34514286 25.5581028,4.45742857 C31.177747,10.26 31.1771937,19.7022857 25.5581028,25.5048571 C19.9390119,31.3062857 10.7961265,31.3062857 5.17814229,25.5048571 L5.17814229,25.5048571 Z M24.3819368,5.672 C19.4127668,0.539714286 11.3251383,0.539714286 6.35403162,5.67314286 C1.38237154,10.8062857 1.38237154,19.1577143 6.35347826,24.2908571 C11.3243083,29.4222857 19.4113834,29.4222857 24.3819368,24.2908571 C29.3524901,19.1577143 29.3519368,10.8042857 24.3819368,5.672 L24.3819368,5.672 Z" id="Fill-1"></path>
                            <path d="M22.987747,7.39 L22.8516206,7.258 L22.7240711,7.11971429 C22.7240711,7.11971429 16.7250988,7.71228571 11.7603557,13.3411429 L9.4370751,13.3277143 C9.4370751,13.3277143 4.78581028,17.3785714 4.20146245,18.91 L8.60399209,18.0428571 C8.3870751,18.4691429 8.17679842,18.916 7.97620553,19.3768571 L8.15521739,19.5857143 L7.86968379,19.9042857 C7.86968379,19.9042857 8.636917,20.9594286 9.08458498,21.4694286 L10.4879051,22.6434286 L10.8428854,22.3617143 L11.0813834,22.5825714 C11.5298814,22.3765714 11.9772727,22.1762857 12.3914625,21.954 L11.5605929,26.5074286 C13.0435968,25.906 16.9757708,21.1125714 16.9757708,21.1125714 L16.9619368,18.7125714 C22.4133597,13.5842857 22.987747,7.39 22.987747,7.39 L22.987747,7.39 Z M19.717668,9.74771429 C20.1520553,9.74771429 20.5050988,10.112 20.5050988,10.5605714 C20.5050988,11.0091429 20.1520553,11.3734286 19.717668,11.3734286 C19.2832806,11.3734286 18.9302372,11.0091429 18.9302372,10.5605714 C18.9302372,10.112 19.2832806,9.74771429 19.717668,9.74771429 L19.717668,9.74771429 Z" id="Fill-2"></path>
                        </g>
                    </g>
                </g>
            </g>
        </g>
    </g>
</svg>